<svg id="Layer_1" data-name="Layer 1" xmlns="http://www.w3.org/2000/svg" viewBox="0 0 433.33 192.6"><defs><style>.cls-1,.cls-5{fill:#fff;}.cls-2{fill:#414242;}.cls-3,.cls-4{fill:none;}.cls-3,.cls-4,.cls-5{stroke:#fff;stroke-miterlimit:10;}.cls-3{stroke-width:1.12px;}.cls-4{stroke-width:1.11px;}.cls-5{stroke-width:5.35px;}.cls-6{fill:#e14d3d;}</style></defs><title>brasilia-logo-grunge</title><path class="cls-1" d="M2.33,137.7L4.63,3,433.14,0V192.6L50.86,189.37s-1-24.81-17.5-36.84S2.33,137.7,2.33,137.7Z" transform="translate(0.03)"/><path class="cls-2" d="M431.77,182.53a1.76,1.76,0,0,1-.57-0.32,1.34,1.34,0,0,1,.52-0.38,10.32,10.32,0,0,1,1.57.1V139.64c-0.34,0-.84.05-1.17,0.06-1,0-1.94.16-2.82-.78-0.52-.56-1.64-0.54-2.47-0.83a3.48,3.48,0,0,1-.75-0.47l-0.09,0,0,0,0,0h-0.06a4.28,4.28,0,0,1-1.21.27c-1.11,0-2.22-.19-3.34-0.28a0.67,0.67,0,0,1-.15,0l-0.75-.4a1.86,1.86,0,0,1,.75-0.29c1.57,0.2,3.13.45,4.69,0.69l0.08,0,0.07,0c2.34,0.51,4.85,1,7.22,1.34V101.73a1.78,1.78,0,0,1-2.23-.77,5.27,5.27,0,0,0-2-1.1l0-.32,4.19,1.3V8.47L428,10.57a0.48,0.48,0,0,1-.18-0.08,4.7,4.7,0,0,1,1.08-.53c1.54-.67,3.23-1.38,4.42-1.82V0H404.08a0.61,0.61,0,0,1-.9,0h-0.83a0.45,0.45,0,0,1,.11.32,3.71,3.71,0,0,1-2.7.17,0.4,0.4,0,0,1,.1-0.15L401.48,0h-7c0,1.07.06,2.14,0.15,3.21,0.13,1.57.1,3.15,0.35,4.71,0.07,0.44,0,.9,0,1.34,0.17,1.77.31,3.54,0.35,5.31,0,1.22.16,2.44,0.23,3.66a1.31,1.31,0,0,1-.14.89,2.43,2.43,0,0,1-.12-0.41c-0.06-1.1-.11-2.2-0.18-3.3s-0.17-2.34-.26-3.52q-0.17-2.24-.35-4.49c-0.07-.92-0.16-1.84-0.23-2.76s-0.14-1.8-.18-2.7c0-.65-0.06-1.3-0.09-2H178.49c-0.66.16-1.36,0.18-2.08,0.33,0.06-.17.09-0.27,0.11-0.33H8l0,0.08V0H0V62.25c1.51-.19,2.95-0.37,4.47-0.53a1.41,1.41,0,0,1-.39.23L0,62.71s-0.06,81.51,0,81.51c26.1,0.09,46.37,21.23,46.37,48.38h5.22l-0.08,0a0.25,0.25,0,0,1,.08-0.08,1.19,1.19,0,0,1,.19.1l0,0H124.4l1.21-.43a1.31,1.31,0,0,1-.47.43H433.3v-9.92C432.84,182.64,432.22,182.58,431.77,182.53Zm0.06-109.39a0.13,0.13,0,0,1,0,.06l-0.06,0V73.11A0.13,0.13,0,0,1,431.83,73.13Zm0.89,41.33a0.12,0.12,0,0,1,0,.06l-0.06,0v-0.1Zm-0.14.69a1.48,1.48,0,0,1,0,1.48A3.61,3.61,0,0,1,432.57,115.16Zm-5-45.8,0,0h0Zm2.44,41.07a11.25,11.25,0,0,1,1.68-.61,1.06,1.06,0,0,1,.3.08,7.39,7.39,0,0,1-1.44.8,8.37,8.37,0,0,0-.95.43,11.14,11.14,0,0,1-2.1.77,1.85,1.85,0,0,1-.54,0,2,2,0,0,1,.44-0.32A13.06,13.06,0,0,0,430.06,110.42Zm-3-3.88a0.27,0.27,0,0,1-.05.08v-0.21A1,1,0,0,1,427.05,106.54Zm-0.31,5.38a0.54,0.54,0,0,1-.59-0.35c-0.22-.5-0.41-1-0.61-1.51a0.56,0.56,0,0,1,.08-0.24,0.58,0.58,0,0,1,.27.1,6.06,6.06,0,0,1,.9,1.78A0.69,0.69,0,0,1,426.75,111.93Zm-0.38-30.18a0.89,0.89,0,0,1-.23-0.21,0.46,0.46,0,0,1,.2-0.14,1.23,1.23,0,0,1,.33.22A0.74,0.74,0,0,1,426.37,81.75ZM425.67,5a0.11,0.11,0,0,1,0,0l0,0.05L425.62,5A0.11,0.11,0,0,1,425.67,5ZM425.6,36.19c-0.32.28-.32,0.28-0.52,0h0.52Zm-1.09,3.29a1.46,1.46,0,0,0,.47-1.42l0.36-.14a0.23,0.23,0,0,0,0-.12,0.59,0.59,0,0,1,0-.7c0.28-.47.59-0.92,0.89-1.37a0.6,0.6,0,0,1,.23-0.1,1.3,1.3,0,0,0,0,.5,0.58,0.58,0,0,1,0,.5c-0.06.16-.15,0.32-0.21,0.48a0.67,0.67,0,0,0,0,.7l0-.12,0,0.13h0a2.53,2.53,0,0,1-.18,1.31c-0.32.86-.6,1.74-0.9,2.61-0.05.16-.14,0.31-0.22,0.49-0.22-.45-0.22-0.45,0-1.45l-0.54,0a5.48,5.48,0,0,0,.1-0.66A5.83,5.83,0,0,0,424.51,39.48Zm0,5.87,0.09,0.09-0.16.1a0.26,0.26,0,0,1,0-.13A0.23,0.23,0,0,1,424.54,45.35Zm-2.09,60a1,1,0,0,1,.26.93c0,0.64-.09,1.28-0.14,1.92a0.32,0.32,0,0,1-.15.25Zm-0.43,4.6a0.11,0.11,0,0,1,0,0l0,0.06L422,110ZM0.15,39.21l0-.1H0.21ZM50.66,16.33a0.46,0.46,0,0,1,.2.14,0.64,0.64,0,0,1-.22.12,0.63,0.63,0,0,1-.24-0.09A0.89,0.89,0,0,1,50.66,16.33Zm-1.4-.39a0.68,0.68,0,0,1,.23.21,0.94,0.94,0,0,1-.37.16,0.67,0.67,0,0,1-.25-0.24A1.67,1.67,0,0,1,49.26,15.95Zm0.45,19.33v0l0.06,0,0,0.06h0a1.48,1.48,0,0,1-1.23.52A1.36,1.36,0,0,1,49.71,35.27Zm-2.94,1.17L47,36.29l-0.2.17-0.21.14Zm-0.89-8.71a1.55,1.55,0,0,1,.13.17L45.91,28l-0.12-.17A0.48,0.48,0,0,1,45.88,27.73ZM44.45,10.21v0.1l-0.1-.05ZM43.82,37.63h0A1.81,1.81,0,0,1,45.27,37l0,0,0.22-.15L45.3,37h0a1.84,1.84,0,0,1-1.42.58l0,0-0.23.15Zm-0.44-9.09a0.27,0.27,0,0,1,.11.07,0.12,0.12,0,0,1-.22,0A0.27,0.27,0,0,1,43.38,28.54Zm-0.45,15h0C43.33,42.89,44,43,44.6,42.76c0.13,0.44-.19.44-0.39,0.49-0.42.11-.84,0.2-1.26,0.29l0,0-0.21.14Zm-1.8-10.8a0.21,0.21,0,0,1,.05.1l-0.08.09L41,32.77A0.23,0.23,0,0,1,41.13,32.74ZM41,38.68l-0.19.14L40.65,39l0.19-.16Zm-0.88-9.1c-0.64.24-1.2-.17-1.95-0.23l0.38-.67L40.78,29A2.55,2.55,0,0,1,40.17,29.58Zm-0.57.61a2,2,0,0,1-.42.17A0.48,0.48,0,0,1,39,30.25,1.33,1.33,0,0,1,39.19,30,1.66,1.66,0,0,1,39.6,30.2Zm-1.7-2.85A1.24,1.24,0,0,1,37.13,27a3.12,3.12,0,0,1-.32-1l1.66,0.51C38.54,27,38.43,27.38,37.91,27.35Zm1.76-1.26,0.05,0,0,0.05-0.21.14Zm-0.55-7.6a3.15,3.15,0,0,1-2.5-.62C38.6,17.65,38.82,17.71,39.12,18.49ZM36.71,40.58h0a0.53,0.53,0,0,1,.13-0.24,2.72,2.72,0,0,1,.5-0.13,0.6,0.6,0,0,1,0,.26,1.32,1.32,0,0,1-.44.23,0.45,0.45,0,0,1-.24-0.12h0l-0.22.14ZM29,15.52l0.1,0,0,0.09a0.24,0.24,0,0,1-.1,0A0.19,0.19,0,0,1,29,15.52ZM18.75,48.31a0.24,0.24,0,0,1-.09.08l-0.07-.19h0.12A0.27,0.27,0,0,1,18.75,48.31ZM18.52,25.12a0.24,0.24,0,0,1,.07.1l-0.05.11-0.13-.16A0.22,0.22,0,0,1,18.52,25.12ZM17.91,35L18,35.09a0.21,0.21,0,0,1-.05.1,0.33,0.33,0,0,1-.13,0ZM16.19,54.55a0.53,0.53,0,0,1,.26.08c-1.85,1.06-2,1.12-3.55,1.24Zm-5.82,2.61h0l-0.21.13ZM8.65,33.66l-0.14,0,0-.09ZM8.19,0.9a0.27,0.27,0,0,1,0,.11L8.12,1l0-.11A0.21,0.21,0,0,1,8.19.9ZM7.88,9.46A1.85,1.85,0,0,1,8,9.62a0.56,0.56,0,0,1-.07.1L7.8,9.57Zm-3,50-0.06-.09,0.1-.06L5,59.46H4.83Zm0-18.83a0.48,0.48,0,0,1-.22-0.07l0.17-.18L5,40.45A0.54,0.54,0,0,1,4.86,40.62ZM5.52,96.29l-0.12-.15a0.21,0.21,0,0,1,.1,0,0.22,0.22,0,0,1,.07.09Zm0-34.71a0.45,0.45,0,0,1-.2-0.14,0.64,0.64,0,0,1,.22-0.12,0.62,0.62,0,0,1,.23.08A0.88,0.88,0,0,1,5.57,61.58Zm2.23-.17c0.68-.64.68-0.64,1.37-0.55C8.89,61.51,8.89,61.51,7.8,61.42Zm0-3.14c0.41-.47.41-0.47,1.54-0.58A1.89,1.89,0,0,1,7.77,58.27Zm16.29,43.27-14,5.56A1,1,0,0,1,9.7,107a9.26,9.26,0,0,1,2.12-1.05c5.71-2.48,11.39-4.64,12.62-4.58A2.63,2.63,0,0,1,24.06,101.55ZM28.51,112a0.51,0.51,0,0,1-.13-0.34,0.31,0.31,0,0,1,.23-0.1,1.72,1.72,0,0,1,.32.33A0.92,0.92,0,0,1,28.51,112ZM29,43.85l-0.88.3-0.6.29H27.48a9.26,9.26,0,0,1-1.2.74c-2.2,1-4.41,1.91-6.61,2.86-0.26-.26,0-0.37.11-0.47a5.4,5.4,0,0,1,1-.63q2.87-1.18,5.76-2.29a5.66,5.66,0,0,1,.95-0.21l0,0,0.61-.29,0.88-.3,0.15-.06Zm2.21-8.24,0-.09h0.08Zm0.44,7,0.21-.13-0.19.14h0Zm0.07,5.54A1.31,1.31,0,0,1,31.7,48c0.17-.07.36-0.12,0.54-0.18L32.31,48ZM33,47.48l0-.1h0.09Zm0.16-5.39h0a0.43,0.43,0,0,1-.07.24,0.8,0.8,0,0,1-.33,0,0.64,0.64,0,0,1,.14-0.22,0.68,0.68,0,0,1,.25-0.06v0l0.06,0Zm0-13.32h0a1.27,1.27,0,0,1-1.16.48,1.26,1.26,0,0,1,1.16-.48l0,0,0.21-.14ZM34.3,41.53l0-.05,0.88-.29,0.05,0,0,0.06-0.88.29Zm0.43,5.39c0.88-.5,1.6-1.38,3-1.22C36.71,46.44,35.9,47.1,34.73,46.92ZM36.3,119a1.08,1.08,0,0,1-.17-0.29,5.12,5.12,0,0,1,.5-0.2,1.5,1.5,0,0,1,.16.28A2.69,2.69,0,0,1,36.3,119Zm3.8-7.57c0.59-.34.59-0.34,1.07,0.32Zm3.61-38.93a0.4,0.4,0,0,1-.12-0.11H44Zm-2.95-7.32A9.47,9.47,0,0,1,37,64.89a0.67,0.67,0,0,1,.09-0.22,1.3,1.3,0,0,1,.41-0.13L47,64.29a2.5,2.5,0,0,1,.6.21C46.35,65.14,46.35,65.16,40.76,65.15ZM51.51,40l-0.89.29h0a1.7,1.7,0,0,1-1,.8L46,42.59c0.4-.78,2.14-1.63,4.63-2.29v0L51.5,40l0.2-.13Zm0.76,50.81H51.57V90.68h0.71v0.15Zm365.59-48a0.2,0.2,0,0,1,.08.06,0.39,0.39,0,0,1-.09.09,0.24,0.24,0,0,1-.09-0.07A0.34,0.34,0,0,1,417.87,42.84Zm-1,58.94,0.1,0.07-0.07.08-0.07-.1A0.09,0.09,0,0,1,416.85,101.78Zm-0.36,75.47c0.77,0.24,1.53.53,2.29,0.81l-0.06.33c-0.82-.16-1.64-0.3-2.45-0.49a1,1,0,0,1-.29-0.45A1.07,1.07,0,0,1,416.49,177.25ZM412.06,26.77a0.1,0.1,0,0,1,0,0l0,0,0-.07ZM398.92,0.57l0.19,0.12h0l0.12,0-0.13,0h0l-0.23,0Zm-3.33,18.92a1.6,1.6,0,0,1,.19.84A0.88,0.88,0,0,1,395.59,19.49Zm-0.06,3.25a0.24,0.24,0,0,1,.18.1,0.93,0.93,0,0,1,.08.26,0.63,0.63,0,0,1-.18.16,0.21,0.21,0,0,1-.18-0.09,0.52,0.52,0,0,1,0-.28A0.21,0.21,0,0,1,395.53,22.74Zm-0.3,1.7h0a0.17,0.17,0,0,1,0,.27v0l0,0,0,0h0V24.45h0l0,0Zm-0.31-1.68v0L395.06,23,395,23l0-.23v0a2,2,0,0,1-.25-1.15A1.32,1.32,0,0,1,394.92,22.76Zm0.23,1-0.1.06a0.08,0.08,0,0,1,0-.05,0.45,0.45,0,0,1,0-.1Zm-1.4,4.75,0.1,0-0.06.3-0.11,0Zm-6.29.84a0.4,0.4,0,0,1,.07.16,0.59,0.59,0,0,1-.61.33,0.77,0.77,0,0,1-.77-0.25ZM374,0.68a0.24,0.24,0,0,1,.07.1,0.25,0.25,0,0,1-.07.1l-0.1-.07ZM346.86,6.39l0.21-.23,0.07,0.08-0.27.14,0,0h0Zm-9.93,4.75a0.12,0.12,0,0,1,0,.06,0.14,0.14,0,0,1-.06,0l0,0ZM334,12.72h0l0.15-.15h0l0.26-.19,0.05,0.1-0.31.09h0l-0.15.15h0l-0.48.31A0.42,0.42,0,0,1,334,12.72Zm-2.11-4.57a0.44,0.44,0,0,1,.05.11l-0.25.1-0.06-.14Zm-2.38.25,0.05,0a0.12,0.12,0,0,1,0,0l-0.05,0A0.11,0.11,0,0,1,329.56,8.41Zm-3.47,8.41a1.12,1.12,0,0,1-1,.52A1.36,1.36,0,0,1,326.08,16.82ZM316.63,3.4a0.22,0.22,0,0,1,.11.05l0,0.13-0.15-.08A0.27,0.27,0,0,1,316.63,3.4Zm-2.41,23a0.49,0.49,0,0,1,.1.2,0.3,0.3,0,0,1-.17.1,0.18,0.18,0,0,1-.07-0.11A0.84,0.84,0,0,1,314.22,26.4Zm-8,.93-0.08,0,0-.06Zm-0.75.31a0.32,0.32,0,0,1,.13.07l-0.18.11a0.22,0.22,0,0,1-.06-0.1A0.17,0.17,0,0,1,305.44,27.64Zm-1.35.69,0,0.05h-0.05Zm-2.45,1.34a0.11,0.11,0,0,1,0,0l0,0.06-0.07-.07Zm-0.74,16.44a1.09,1.09,0,0,1-.65.82,1,1,0,0,1-.38-0.11ZM287,38.42h0a1,1,0,0,1,.72-0.43h0l0.27-.31a0.26,0.26,0,0,1-.27.31h0a1,1,0,0,1-.72.43h0l-0.35.4A0.33,0.33,0,0,1,287,38.42Zm-2,1.35h0l0.15-.15,0,0,0,0-0.15.15h0a2.55,2.55,0,0,1-1.17.78A1.5,1.5,0,0,1,285.05,39.78Zm-1.62,1a0.51,0.51,0,0,1-.53.39A0.54,0.54,0,0,1,283.43,40.79ZM273,12.87h0l0,0,0,0h0l-0.27.32C272.74,12.88,272.9,12.9,273,12.87Zm-9.76,46.78a0.51,0.51,0,0,1,.32-0.15,0.29,0.29,0,0,1,.12.21,3.19,3.19,0,0,1-.22.55A1.87,1.87,0,0,1,263.26,59.65Zm-0.42-37.79a0.71,0.71,0,0,1,.16.09l-0.09.14a0.85,0.85,0,0,1-.14-0.13A0.19,0.19,0,0,1,262.84,21.86Zm-0.15,48.77a0.92,0.92,0,0,1,.19.14,0.48,0.48,0,0,1-.21.07,0.35,0.35,0,0,1-.09-0.15A0.24,0.24,0,0,1,262.69,70.63Zm-0.62,10a0.05,0.05,0,0,1,0,.09l0,0ZM261.16,93.8a0.12,0.12,0,0,1,0,0l-0.1,0V93.82A0.15,0.15,0,0,1,261.16,93.8ZM256.69,89a0.71,0.71,0,0,1,.19.26,0.25,0.25,0,0,1-.18.18,0.27,0.27,0,0,1-.19-0.18A0.66,0.66,0,0,1,256.69,89Zm-6.24,1.09v0.11l-0.1-.07Zm-6.08.5a2.36,2.36,0,0,1,.06.24l-0.12,0a2.36,2.36,0,0,1-.06-0.24Zm-6.49-75.77,0,0.09,0-.1h0.09Zm-4.18,96.52,0.05,0.2-1,.26-0.06-.22Zm-2.21-98.13-0.28-.84C231.7,12.61,231.7,12.61,231.48,13.25Zm-0.21,98.41c0,0.07,0,.14,0,0.2h-0.54v-0.14Zm-0.72-43.17a1.53,1.53,0,0,1,.08,1.69,0.69,0.69,0,0,1-.91-0.66A0.81,0.81,0,0,1,230.55,68.48Zm-2.47-19.94,0,0.09H228Zm0.16,63.4a2,2,0,0,1,.4.27,2.07,2.07,0,0,1-.72,0C227.77,112.12,228,111.89,228.24,111.94ZM227.34,2.06l0.49,2.1c-0.47.35-.72,0.15-0.82-0.23A2.65,2.65,0,0,1,227.34,2.06Zm-0.62,52.26,0.07,0-0.09,0V54.31Zm-2.8-2.87a0.56,0.56,0,0,1,.12.24,2.36,2.36,0,0,1-.16.47,2.09,2.09,0,0,1-.25-0.46A1.68,1.68,0,0,1,223.91,51.45Zm-3.12,56.44,0.08,0-0.08,0v-0.08Zm-2.45-4.59-0.06.11-0.06-.11h0.11Zm-2-17.64,0,0.16a0.28,0.28,0,0,1-.11,0,0.19,0.19,0,0,1,0-.09Zm-1.3-15.71L215.17,70a0.93,0.93,0,0,1-.12.15,0.29,0.29,0,0,1-.11,0Zm-1-10.74,0.2,0.16-0.23.26a0.53,0.53,0,0,1-.13-0.22A0.49,0.49,0,0,1,214.09,59.2Zm0.11,48.06a1.46,1.46,0,0,1-.16.13,1.41,1.41,0,0,1,0-.21l0.11,0A0.44,0.44,0,0,1,214.2,107.25Zm-4,1.41h0a2.48,2.48,0,0,1,1.32-.45,1.52,1.52,0,0,1-1.32.45l0,0-0.21.13Zm-1,4.82,0.11,0.07a0.13,0.13,0,0,1-.23,0ZM207,46.74l0,0.1H207Zm0,28.55c-0.51.42-.79,0.53-1.28,0h1.28Zm-1.37,41.66h0.06a7.53,7.53,0,0,1,1-.54c0.36-.15.76-0.19,1.13-0.3a2,2,0,0,0,1.7-1.37,2,2,0,0,0,2.13.26c1.12-.36,2.25-0.7,3.39-1a13.74,13.74,0,0,1,1.48-.26l0.09,0h0a5.31,5.31,0,0,1,2.35-1,4.42,4.42,0,0,1,1-.14,1,1,0,0,1,.24.29,9.46,9.46,0,0,1-3.58.88l0,0-0.1,0c-0.87.35-1.73,0.76-2.63,1-2.15.68-4.32,1.32-6.49,1.93a11.49,11.49,0,0,1-1.67.24l0,0h0a6.05,6.05,0,0,1-3.18.87l0,0h0a3.39,3.39,0,0,1-2,.57l0,0h0l-0.4.22-0.06-.17,0.45,0,0,0h0a3.19,3.19,0,0,1,2-.57l0,0h0a5.6,5.6,0,0,1,3.18-.87ZM200,75.46a1.4,1.4,0,0,1-1.3.77l-0.11-.29Zm-1.28,21.88a0.17,0.17,0,0,1,.09.06,1.86,1.86,0,0,1-.1.2l-0.17-.11A1.62,1.62,0,0,1,198.67,97.35Zm-0.94,16.41h5.08q0,0.08,0,.15h-5.14Zm-1.78-6.87,0.88-.3,0.06,0,0,0.06-0.88.3-0.24.14Zm0.31,6.93v0.08l-0.08,0Zm-5-94.85,0.15,0.13-0.11.06a0.21,0.21,0,0,1-.09-0.07A0.27,0.27,0,0,1,191.22,19ZM179.81,81.76L179.92,82l-0.72.23-0.07-.2Zm5.7,4.16c2.23-.76,4.45-1.55,6.69-2.32,0.83-.28,1.67-0.52,2.51-0.78l0.09,0.28c-5.65,2.26-11.47,4.06-17.21,6a1.07,1.07,0,0,1-.39-0.14,2,2,0,0,1,.5-0.43C180.29,87.67,182.9,86.81,185.51,85.92Zm8.92,27.93a0.26,0.26,0,0,1-.1.06,0.26,0.26,0,0,1-.1-0.06A0.12,0.12,0,0,1,194.42,113.85Zm-8.12,3.66-2.49-.2C184.61,117.29,185.45,116.57,186.3,117.51ZM185,114.15a1,1,0,0,1,.17-0.11,0.25,0.25,0,0,1,.09.07l-0.16.11ZM183.56,106h0l-0.2.13,0.19-.14h0c1.39-.55,2.73-1.25,4.31-1A8.55,8.55,0,0,1,183.56,106Zm4.81,4.21-1.8-.4C187.64,109.05,187.64,109.05,188.37,110.21Zm0,3.78a0.49,0.49,0,0,1-.17.18,0.46,0.46,0,0,1-.21-0.11,0.51,0.51,0,0,1,.17-0.18A0.44,0.44,0,0,1,188.35,114ZM188,117.56l3.47,0.28V118l-3.51-.28ZM181.5,96.8l-0.22,0a0.73,0.73,0,0,1,0-.12l0.22,0V96.8Zm-0.73,17.29a0.28,0.28,0,0,1,0,.1h-0.13a0.28,0.28,0,0,1,0-.1A0.48,0.48,0,0,1,180.77,114.1Zm-2.92-31.46,0,0,0.22-.15-0.2.17h0a4.52,4.52,0,0,1-2,.87A2.58,2.58,0,0,1,177.86,82.64Zm-3.19-82,0.12,0.05a0.27,0.27,0,0,1-.07.12,0.24,0.24,0,0,1-.12,0Zm-31.2,52.87-0.2.15-0.88.3-0.21.14,0.2-.16,0.88-.3Zm-8.65-42.89q3.61-1,7.23-2a2.79,2.79,0,0,1,.68.1,11.42,11.42,0,0,1-2,.72c-2.09.28-3.91,1.53-6.25,1.73A1.66,1.66,0,0,1,134.81,10.58Zm-2.5-.57,0.17,0.16a1.18,1.18,0,0,1-.21.12,0.18,0.18,0,0,1-.1-0.08A1.78,1.78,0,0,1,132.31,10Zm-0.55,28.62v0.08l-0.08,0ZM131,11.88a0.55,0.55,0,0,1,.24.05l-0.06.12-0.26,0A0.42,0.42,0,0,1,131,11.88Zm-1.24-5,0.35,0.23-0.29.37a0.75,0.75,0,0,1-.26-0.26A0.78,0.78,0,0,1,129.76,6.91Zm-1.93-.25,0.08,0.05-0.09,0V6.66ZM103.54,17.14l0.21,0,0,0.12-0.21,0A0.45,0.45,0,0,1,103.54,17.14ZM102.27,21a0.34,0.34,0,0,1-.07.13,0.22,0.22,0,0,1-.11,0Zm-1.16,34.69a0.29,0.29,0,0,1,0,.26,1.1,1.1,0,0,1-.51.13,1.25,1.25,0,0,1-.41-0.31,1.38,1.38,0,0,1,.49-0.3A0.88,0.88,0,0,1,101.11,55.74ZM100.2,37.32a0.35,0.35,0,0,1-.07.14,0.24,0.24,0,0,1-.12,0ZM99.57,59c0.48,0.51,1.2.92,1,1.89a7.74,7.74,0,0,1-.8.12l-5.6.29a2.08,2.08,0,0,1-1.68-.36c2.21-.77,4.41-0.77,6.77-1.21l-1.58-.95c0-.57.28-0.74,0.65-0.58A3.59,3.59,0,0,1,99.57,59Zm-4.2,8.32-0.16.19-0.27-.23a0.54,0.54,0,0,1,.23-0.13A0.5,0.5,0,0,1,95.37,67.32Zm2.06-65.9a0.26,0.26,0,0,1,.06.12l-0.09.09-0.1-.18A0.25,0.25,0,0,1,97.43,1.41ZM97.22,5.84L97.47,6a0.49,0.49,0,0,1-.19.15A0.44,0.44,0,0,1,97.09,6Zm-0.65,8.28-0.06.14h0Zm-5.56,1,0.12,0.24-0.46.21-0.09-.16Zm-5-1.53L86,13.71l0-.09H86ZM86.32,24.5a1.09,1.09,0,0,1-.23,1.31C85.71,25.15,85.76,24.79,86.32,24.5ZM84,41.9a8.58,8.58,0,0,0,.07-1.32,36.85,36.85,0,0,1,.71-4.93A19.11,19.11,0,0,0,85,32.73a6.29,6.29,0,0,1,.14-1.16,10.51,10.51,0,0,0,.33-3.65,2.13,2.13,0,0,1,.57-1.71l0.65,0.46H86.8c1.81-.8,3.59-1.65,5.43-2.39,1.63-.66,3.32-1.2,5-1.77a1.6,1.6,0,0,1,1,0,1.85,1.85,0,0,1-.48.37C94.49,24,91.3,25.35,88,26.46a6.59,6.59,0,0,1-1.21.2l-0.07,0h0c-0.14.92-.26,1.84-0.44,2.75a7.47,7.47,0,0,0-.06,2.76,6.81,6.81,0,0,1-.05,2c-0.15,1.06-.38,2.11-0.59,3.16-0.13.67-.29,1.33-0.43,2a0.43,0.43,0,0,0,0,.29c0.71,1.1,0,2.06-.34,3-0.24.6-.45,0.6-1.4,0.29A4.91,4.91,0,0,0,84,41.9ZM85.23,49a1.54,1.54,0,0,1,.14.18H85.14A0.12,0.12,0,0,1,85.23,49Zm-0.43-1.16c-0.16-.21-0.11-0.3.28-0.75a0.26,0.26,0,0,1,.11.07c0,0.26,0,.51,0,0.77A0.71,0.71,0,0,1,84.79,47.87Zm0.4-2.47c-0.44-.42-0.82-0.91-1.37-1.54a2.13,2.13,0,0,1,.94,0,17.18,17.18,0,0,1,1.31,1.35A0.48,0.48,0,0,1,85.19,45.4ZM84.4,50.6a7.36,7.36,0,0,1,1-.27,1.18,1.18,0,0,1-.85,1.34C83.87,51.08,83.85,50.85,84.4,50.6ZM85,52.31a0.28,0.28,0,0,1-.11,0,0.22,0.22,0,0,1,0-.1,0.28,0.28,0,0,1,.11,0A0.22,0.22,0,0,1,85,52.31Zm-0.14,9.1q2.42-.27,4.84-0.46a4,4,0,0,1,1,.22,0.93,0.93,0,0,1-1,.9,5.93,5.93,0,0,0-2.58.31,3.75,3.75,0,0,1-3.11-.5A3.1,3.1,0,0,1,84.88,61.42Zm-2.08-12,0.11,0.06-0.13.15a0.28,0.28,0,0,1-.05-0.11A0.23,0.23,0,0,1,82.79,49.42Zm-2.28-26.3,0.89-.29,0.87-.3,0.21-.14-0.19.16-0.88.3-0.89.29-0.22.14Zm-3.21,6.76L82,28.18a0.7,0.7,0,0,1,.25,0l0,0L82.49,28l-0.19.15h0a6.91,6.91,0,0,1-1.08.67c-1.18.48-2.39,0.9-3.59,1.34a0.63,0.63,0,0,1-.28-0.05A0.66,0.66,0,0,1,77.31,29.88Zm1.17,57.49a0.73,0.73,0,0,1,0,.12l-0.22,0,0-.12Zm-3-56.54,0,0,0.21-.14-0.19.15h0c-0.7.73-1,.84-2.58,0.91A3.55,3.55,0,0,1,75.46,30.83Zm-1.31,38.4L74,69.31h0ZM71.93,32L72,32l0,0.05-0.06,0Zm-3.24-4.6c-0.42.79-.65,0.85-1.69,0.37Zm-2.1-3.22,0.17,0.14-0.07.1a1.61,1.61,0,0,1-.17-0.15A0.49,0.49,0,0,1,66.58,24.19ZM66.06,28a1.38,1.38,0,0,1,.4.27,1.78,1.78,0,0,1-.42.36A0.32,0.32,0,1,1,66.06,28Zm-2.44,1.69-0.8.19-0.06,0h0l-0.77.63c0-.73.46-0.58,0.77-0.63l0,0,0.07,0,0.71-.43ZM61.86,3.28a1,1,0,0,1,1.26.59c-0.76.49-.76,0.49-1.76,0.13A0.55,0.55,0,0,1,61.86,3.28ZM60.68,17.5l0.07-.05-0.05.07-0.06,0ZM65.6,34.44a14.3,14.3,0,0,1-6.32,2.42C61.59,36,63.51,35,65.6,34.44Zm-7.75-2.69L58,32l-0.45.2L57.43,32ZM56.54,15.86a0.11,0.11,0,0,1-.06.2l-0.07-.19h0.13Zm-0.1,7.22-0.05.09,0-.09h0.09Zm-2.68,16,2.11-1.21-1.17-.26-1-.2a1.69,1.69,0,0,1,1.79-.28,22.75,22.75,0,0,0,6.19,1c0.59,0,1.18,0,1.77.06a1,1,0,0,1,.73.47,8.06,8.06,0,0,1-.82.13,17.2,17.2,0,0,1-5.26-.26,2.34,2.34,0,0,0-1,0c-1,.21-2,0.47-3,0.7A1.16,1.16,0,0,1,53.76,39.12Zm3.72,116.1a1.52,1.52,0,0,1-.13-0.31,0.86,0.86,0,0,1,.22-0.11L57.66,155ZM54.21,90.78c0.07-.53.44-0.44,0.69-0.43,1.37,0,2.73.15,4.1,0.18q2.36,0.05,4.71,0c1,0,2-.15,2.93-0.2,0.61,0,1.22,0,1.83,0C63.73,91.57,59,91.11,54.21,90.78ZM69,57.7a7.74,7.74,0,0,1-1.18,0c-2,0-3.94,0-5.91,0a11.58,11.58,0,0,1-1.47-.1,1.1,1.1,0,0,1-1-.82h9a0.88,0.88,0,0,1,1,.49A1.61,1.61,0,0,1,69,57.7Zm-1.56-1.53a0.78,0.78,0,0,1,.9-0.53l0.32-.11-0.24.21A0.75,0.75,0,0,1,67.45,56.17Zm-0.89-22a23.07,23.07,0,0,1,4.05-1.82A5.3,5.3,0,0,1,66.56,34.2Zm4.9,55.73a29.48,29.48,0,0,1,6.46-.69c-1.86.82-3.85,0.77-5.8,1A1,1,0,0,1,71.45,89.93Zm6,44.07a0.71,0.71,0,0,1-.29-0.23,0.69,0.69,0,0,1,.26-0.25,1,1,0,0,1,.38.21A0.93,0.93,0,0,1,77.48,134Zm-1-3.28a1.33,1.33,0,0,1-.66,0,1.33,1.33,0,0,1,.28-0.49c0.86-.55,1.87-0.86,2.44-1.83a2.11,2.11,0,0,1,1-.07l0.09,0.34C78.59,129.32,77.53,130,76.45,130.71Zm9.85,11.16a0.57,0.57,0,0,1-.54,0,0.52,0.52,0,0,1-.08-0.51c0.32-.4.7-0.75,1.06-1.12L87,140.48A15,15,0,0,1,86.3,141.87Zm2.75,41.28H88.84V183h0.21v0.11ZM87.2,115.72l2.13-1.29C88.86,115.34,88.86,115.34,87.2,115.72Zm8.58,20.76c-0.51.06-1,.08-1.55,0.12l0-.32c0.48-.14,1-0.31,1.45-0.4a1,1,0,0,1,.42.34A0.75,0.75,0,0,1,95.77,136.47Zm7.61,40.5-0.22-.27,1.95-1.46C104.9,176.43,104.9,176.43,103.39,177Zm5.15-3.77c-0.88.58-1.77,1.14-2.65,1.7l-0.19-.26c0.86-.66,1.72-1.32,2.59-2a0.4,0.4,0,0,1,.36.12A0.43,0.43,0,0,1,108.54,173.2Zm-2-54a11.15,11.15,0,0,1,3.12-3.5C108.32,118.1,107.57,118.94,106.57,119.15Zm4.21-2.85a0.46,0.46,0,0,1-.08-0.22,0.5,0.5,0,0,1,.24-0.07,0.45,0.45,0,0,1,.09.22A0.54,0.54,0,0,1,110.78,116.3Zm1.4-31.95a2.81,2.81,0,0,1-2,1.29c-2.19.31-4.38,0.66-6.58,0.94-4,.5-8,1-12,1.44-1.81.22-3.61,0.48-5.42,0.68s-3.63.36-5.44,0.52A3,3,0,0,1,80,89.13l0-.32c1.46-.19,2.92-0.37,4.38-0.57,3.32-.46,6.63-0.94,10-1.39,2.78-.37,5.57-0.71,8.36-1.06,1.76-.22,3.53-0.4,5.28-0.65a6.82,6.82,0,0,0,3-1,1.1,1.1,0,0,1,1.28-.36A1.91,1.91,0,0,1,112.18,84.36ZM104.9,67.27l0.05-.07,0,0.09H104.9Zm1.25-45.1A0.39,0.39,0,0,1,106,22a0.63,0.63,0,0,1,.22-0.11,0.4,0.4,0,0,1,.13.16A0.6,0.6,0,0,1,106.15,22.17Zm0.28,1.09a0.43,0.43,0,0,1,.12.19l-0.23.11-0.12-.21A0.58,0.58,0,0,1,106.43,23.26Zm3.29,2.23,0.19-.07v0.12a0.26,0.26,0,0,1-.12,0A0.24,0.24,0,0,1,109.71,25.49Zm0.68,24.7a2,2,0,0,1,.1-0.2l0.1,0-0.09.2Zm3.66-23.38a0.44,0.44,0,0,1-.17-0.16,0.52,0.52,0,0,1,.15-0.21l0.24,0.22Zm0.6,87.92,0.2-.15,0.89-.29,0.87-.3,0.21-.13-0.2.15-0.87.3-0.89.29Zm1.25-67,0.09-.19,0.1,0.08a0.3,0.3,0,0,1-.07.12A0.26,0.26,0,0,1,115.91,47.71ZM117,163.22l-1.66-.15a10.76,10.76,0,0,1,1.66.15c0.51,0,1,.08,1.53.09a24.47,24.47,0,0,1,3.06,0A9.74,9.74,0,0,1,117,163.22Zm0.87-49.73,0.46-.07,0,0h0a1.33,1.33,0,0,1,1.09-.5c-0.2.6-.7,0.43-1.09,0.5l0,0h-0.05l-0.4.23Zm5.54,7.6c-0.53,0-1.06,0-1.59,0a2.11,2.11,0,0,1,2-.35A1.39,1.39,0,0,1,123.45,121.09ZM122.65,67l0.06-.08,0,0.09ZM117.73,16.3c-1.79.53-3.59,1-5.36,1.62-2.56.85-5.1,1.78-7.66,2.66a2.68,2.68,0,0,1-1.73.21,7.72,7.72,0,0,1,.84-0.44c1.29-.49,2.57-1,3.88-1.42,1.91-.63,3.85-1.2,5.77-1.82a21.2,21.2,0,0,1,2.36-.83c1.94-.37,3.74-1.16,5.64-1.66s3.66-1.13,5.5-1.67c0.94-.27,1.9-0.45,2.85-0.67l0.12,0.27a12.49,12.49,0,0,1-2.32.82Zm7.5,104.77a1.09,1.09,0,0,1,1.61-.28Zm2.35-102a0.27,0.27,0,0,1-.1-0.23,3,3,0,0,1,.34-0.39,0.82,0.82,0,0,1,.21.24A0.35,0.35,0,0,1,127.57,19.07Zm2.18,101.06V120l0.34,0a0.37,0.37,0,0,1,0,.1Zm1-61.84a1.18,1.18,0,0,1,1.29-.45A1.07,1.07,0,0,1,130.77,58.29Zm1.1-46.49a1.92,1.92,0,0,1,1.86-.62A2.12,2.12,0,0,1,131.87,11.8Zm1.65,107.7-0.08,0,0.08,0v0.08Zm1.76-62.92h0a1.73,1.73,0,0,1-1.42.58l0,0-0.59.3-0.2.13,0.19-.14,0.59-.3h0a1.92,1.92,0,0,1,1.42-.58l0,0,0.89-.29,0.21-.14-0.2.16Zm1.06,60.61-0.11-.06,0-.09h0.13Zm0.12-90.32-0.08,0,0.08,0v0.08Zm8.71,75.33a12.33,12.33,0,0,1-5.54-1Zm-2.61,15.57a0.47,0.47,0,0,1-.14-0.12h0.42A2.6,2.6,0,0,1,142.56,117.77Zm2-7,0-.34,5.17,0.9C148,111.65,146.34,110.64,144.58,110.8ZM145.3,90l0-.16,0.1,0a0.17,0.17,0,0,1,0,.09A0.27,0.27,0,0,1,145.3,90Zm1.1-68.59,0.08-.1a1.76,1.76,0,0,1,.17.15,0.58,0.58,0,0,1-.07.1Zm1.27,18.83V40.11l0.08,0ZM150.26,21a0.57,0.57,0,0,1-.24-0.11,0.48,0.48,0,0,1,.08-0.23,0.55,0.55,0,0,1,.24.11A0.46,0.46,0,0,1,150.26,21ZM149.07,7.21a26,26,0,0,0-3.14.7,8,8,0,0,1-1.39.28c1.26-1,2.89-1.06,4.32-1.63,0.94,0.11,1.78-.69,2.75-0.32A6.71,6.71,0,0,1,149.07,7.21Zm3.86,54.32a0.43,0.43,0,0,1-.12-0.11h0.39A2.44,2.44,0,0,1,152.93,61.52Zm2,54.67a2.42,2.42,0,0,1,1.75-.41A2.12,2.12,0,0,1,155,116.2Zm1.72-66.54a0.45,0.45,0,0,1-.1-0.22,0.55,0.55,0,0,1,.22-0.14l0.11,0.22ZM156.17,5a1.79,1.79,0,0,1,1.42-.29A1.71,1.71,0,0,1,156.17,5Zm1.54,9.06a1.32,1.32,0,0,1,.13-0.18L158,14.07a1.32,1.32,0,0,1-.2.1A0.16,0.16,0,0,1,157.71,14.09ZM157.94,116a0.92,0.92,0,0,1-.09-0.14,0.34,0.34,0,0,1,.13,0,0.23,0.23,0,0,1,.07.09Zm0.18,7.07a0.5,0.5,0,0,1-.08-0.24,0.29,0.29,0,0,1,.21-0.16,0.64,0.64,0,0,1,.21.21Zm0.75-84L158.65,39a0.45,0.45,0,0,1,0-.1l0.22,0.06A0.45,0.45,0,0,1,158.87,39ZM158.79,4.44l-0.09-.19L159.18,4l0.09,0.2ZM160,115.68h-0.46v-0.11H160v0.11Zm1.13,0a0.24,0.24,0,0,1-.09-0.07l0.2,0A0.26,0.26,0,0,1,161.17,115.67Zm0.26-112a12.93,12.93,0,0,1,5.87-1.46,1.69,1.69,0,0,1-.45.39c-1.76.4-3.53,0.77-5.3,1.15A0.27,0.27,0,0,1,161.43,3.71ZM166.8,115l-0.18.12-0.13,0a0.86,0.86,0,0,1,.18-0.12A0.28,0.28,0,0,1,166.8,115Zm-3.22.31a0.27,0.27,0,0,1,0,.1l-0.34,0v-0.1ZM162.1,54.8l0,0.07,0-.09h0.08Zm1.11,107.93v-0.15l0.59,0,0,0.18h-0.62Zm-1.05-16.34-0.44-.09a0.92,0.92,0,0,1,.44.09l3.06,0.61C163.8,147.61,162.88,146.69,162.16,146.39Zm5.06,16.42c-0.24,0-.48,0-0.73,0h-0.84a3,3,0,0,1,2.24-.12C167.67,162.75,167.45,162.79,167.22,162.81Zm0-76.63-0.2.13,0.19-.14,0.89-.29,0.87-.3,0.2-.13-0.19.14-0.87.3Zm1,14.37a1.08,1.08,0,0,1,1.48-.42A1.31,1.31,0,0,1,168.29,100.55Zm2,62.47h-0.88v-0.12h0.88V163ZM171,114.81a0.38,0.38,0,0,1-.07-0.15h0.26a0.2,0.2,0,0,1,.05.09A1.1,1.1,0,0,1,171,114.81Zm2-51.51a0.4,0.4,0,0,1-.22-0.29,1.64,1.64,0,0,1,.3-0.43L173.54,63A2.21,2.21,0,0,1,173,63.3Zm0.71,50v-0.1l0.1,0.06ZM174,90.22V90.13l0.09,0Zm0.39,69.5,1.58-.46A1.36,1.36,0,0,1,174.43,159.71Zm2.14-43.61c2.47-.1,2.76-0.06,3.51.64C179,116.15,177.53,117.61,176.58,116.11ZM179.26,128l-0.18.12L178.9,128A0.29,0.29,0,0,1,179,128,1.76,1.76,0,0,1,179.26,128Zm4.29,28.87,0,0h0a4,4,0,0,1-2.62.88h0a9.83,9.83,0,0,1-4.07,1.34,9.9,9.9,0,0,1,4.07-1.34h0a4.47,4.47,0,0,1,2.62-.88l0,0h0a5.17,5.17,0,0,1,2.3-.85A2.82,2.82,0,0,1,183.55,156.9Zm5.12-1.69,0.43-.05,0,0h0.05l1.68-.57,0,0,0.9-.29h0a0.44,0.44,0,0,1,.1-0.07,42.19,42.19,0,0,1,5.6-1.59,16.28,16.28,0,0,1-5.7,1.67l0,0-0.9.29h0a2.21,2.21,0,0,1-1.68.57h-0.09l-0.38.21Zm3.38-4.21,2.5,0.2C193.66,151.78,192.95,151.27,192.05,151Zm1,12.19a1,1,0,0,1-.34.74,1,1,0,0,1-.82-0.27c-0.28-1.27-1.23-.74-2-0.8v0l0,0,0,0,0,0c0.26,0.71.54,1.43,0.76,2.15a0.55,0.55,0,0,1-.33.4,4.35,4.35,0,0,1-1.21-.21c-0.42-.14-0.52-0.42-0.22-0.83s0.67-1,1-1.51l0-.06h0l0.54-.74a1.42,1.42,0,0,1,1.81-.47A1.32,1.32,0,0,1,193.09,163.18Zm0.46,2.32a1.5,1.5,0,0,1-.4-0.67,1.87,1.87,0,0,1,.63-0.06c0.69,0.18,1.37.41,2.06,0.63v0.25C195.08,165.61,194.31,165.61,193.55,165.5Zm3.55,0c0.79-.18,1.64-0.88,2.42.19Zm-1.24-13.95A38.48,38.48,0,0,1,200,152l0.13-.1,0.05,0,0,0.05L200,152a6.71,6.71,0,0,1,2.25.89Zm7.68,20.52a0.17,0.17,0,0,1-.08-0.07,1.57,1.57,0,0,1,.12-0.19l0.15,0.14A1.45,1.45,0,0,1,203.55,172.07Zm7.85-17.9a14.19,14.19,0,0,1-3.74-.74c1.27,0.1,2.54.16,3.8,0.32s2.55,0.42,3.9.65C213.94,155.08,212.7,154.19,211.4,154.17Zm11.89,1.65-1.22-.1c-1.34-.08-2.67-0.12-4-0.24a8.89,8.89,0,0,1-1.49-.39l0.13-.46,6.59,1v0.16Zm5.16,30.26c-0.57,0-1.14-.08-1.65-0.12,0.94-1,1.25-1.07,2-.4a1.12,1.12,0,0,1,.17.37A1.54,1.54,0,0,1,228.45,186.07Zm-2.29-20.18a1,1,0,0,1,.32-0.35,12.48,12.48,0,0,1,1.25.29v0.28a1.25,1.25,0,0,1-.59.27A5.14,5.14,0,0,1,226.16,165.89Zm3.05,17.59a1.84,1.84,0,0,1-.36.6,1.59,1.59,0,0,1-.47-0.68,22.89,22.89,0,0,1,.81-2.16l0.2,0.11C229.34,182.05,229.31,182.77,229.21,183.48Zm2.28-16.73a0.8,0.8,0,0,1-1.11-.55,4,4,0,0,0-.4-0.57,1.94,1.94,0,0,1,.88-0.12,5.35,5.35,0,0,1,.94.92A0.88,0.88,0,0,1,231.49,166.75Zm3.2,0.2c-0.71.06-.53-0.55-0.7-0.85a1.67,1.67,0,0,1,.82-0.3,7.45,7.45,0,0,1,1.31.8Zm0.23-9.35h-0.18l0,0a1.16,1.16,0,0,0-1.59.41l-1.13,1.3c-0.38-3.06-3-2.1-4.56-3,0.68,0.1,1.36.23,2,.31s1.24,0.09,1.86.15c1,0.09,2,.18,3.06.33a1,1,0,0,1,.32.52l0,0,0,0,0,0,0.15,0c1.24,0,2.47-.06,3.71-0.05a1.6,1.6,0,0,1,.42.56C237.53,158.42,236.25,157.8,234.92,157.6Zm0.14-38.05a3.4,3.4,0,0,1,.39-0.88,5,5,0,0,1,.85-0.71,0.21,0.21,0,0,1,.11.1,0.7,0.7,0,0,1,0,.4c-0.37.42-.76,0.81-1.14,1.2A1.07,1.07,0,0,1,235.06,119.55Zm3.09,7.05a0.52,0.52,0,0,1,.28-0.25,1,1,0,0,1,.31.32,1.57,1.57,0,0,1-.43.13A0.31,0.31,0,0,1,238.15,126.6Zm1.61,25.93a0.5,0.5,0,0,1-.35-0.23,0.8,0.8,0,0,1-.16-0.57c0.39-.73.84-1.43,1.26-2.13l0.14,0.18c-0.21.82-.41,1.64-0.63,2.45A0.45,0.45,0,0,1,239.75,152.53Zm15.61,8.14-3.5-.49h-0.28l-0.06,0c-0.74-.09-1.47-0.17-2.21-0.28s-0.66.3-.78,0.73c-0.17.67-.58,0.6-0.78,0.07a1.44,1.44,0,0,0-1.36-1c-2-.35-4-0.86-6-1.4,2.31,0.32,4.62.61,6.92,1,1,0.16,1.88.33,2.31-.94a6.74,6.74,0,0,0,.84,1.2,5.4,5.4,0,0,0,1.11.64h0.09l0.25,0,3.53,0.12Zm-13.58-12.9c0.31-.64.64-1.28,1-1.89a0.62,0.62,0,0,1,.52,0,0.71,0.71,0,0,1,.17.35c-0.38.7-.74,1.36-1.12,2a0.49,0.49,0,0,1-.42,0A0.43,0.43,0,0,1,241.78,147.77Zm11.86-22,0,0.38c-1.36-.43-2.8.1-4.16-0.28l0-.44ZM250.08,112a1.21,1.21,0,0,1,.47-0.41c0.55,0,1.11.07,1.84,0.13a17.93,17.93,0,0,1-1.77.66A1.26,1.26,0,0,1,250.08,112Zm3.3,22a2.73,2.73,0,0,1-1.76,2.35Zm-6.66-20.23c1-.06,2.07-1,3.11.08Zm7.36,2.25a6.5,6.5,0,0,1,.35-1.51,14.48,14.48,0,0,1,1.11-1.69C255.69,113.62,255.63,113.77,254.08,116Zm2-5.12-1.62-1.23c0-.11,0-0.22,0-0.33,1.51,0.52,2.41-.65,3.6-1Zm0-5.35c-2.29.75-4.59,1.48-6.89,2.2l-1.51.45c-1.77.52-3.54,1-5.25,1.67-3.18,1.24-6.51,1.91-9.74,2.95-4,1.28-8,2.47-12,3.76-5.59,1.8-11.16,3.74-16.8,5.36-3.63,1-7.26,2-10.89,3-1.56.44-3.14,0.85-4.7,1.27a15.54,15.54,0,0,1-4.48.75h0c-1,.85-2.16.71-3.3,0.79a5.56,5.56,0,0,1,3.3-.79h0c1.26-.39,2.5-0.81,3.77-1.16,4.6-1.28,9.22-2.49,13.81-3.81,2.07-.6,4.14-1.22,6.2-1.85l-0.54-.08c-1.65-.25-3.31-0.44-5-0.69a5.19,5.19,0,0,1-1-.36l-0.14,0h0L200.5,119l-3.36-.27,0-.23,3.34,0.5,0.47,0,0.11,0c1.82,0.21,3.63.44,5.45,0.61l2.19,0.18,6-1.84c1.13-.35,2.24-0.76,3.37-1.12l10.13-3.24,6.9-2.19a10.65,10.65,0,0,1,1.7-.5,43,43,0,0,0,6.51-1.86c2.17-.66,4.31-1.4,6.47-2.07,2.87-.9,5.74-1.77,8.61-2.65a0.83,0.83,0,0,1,.54,0A10.1,10.1,0,0,1,256.07,105.55Zm3.9,29.3a1.52,1.52,0,0,1-.17-0.15,0.42,0.42,0,0,1,.07-0.11l0.17,0.15Zm0.08-7.34a0.53,0.53,0,0,1-.51,0,2.51,2.51,0,0,1-.34-0.67,4.53,4.53,0,0,1,.5-0.18,1.32,1.32,0,0,0,.45,0c0.93-.82,1.54-0.21,2.27.46C261.55,127.16,260.66,126.57,260.05,127.5Zm7.07,35.06c-1-.19-2.09-0.39-3.15-0.55a17,17,0,0,1-3-.61l6.19,0.84ZM263,123.81c0.53-.38,1-0.71,1.42-1a0.52,0.52,0,0,1,.49.13,0.61,0.61,0,0,1,0,.56A1.26,1.26,0,0,1,263,123.81ZM269.65,101h-0.27l0,0-0.89.3-0.9.29h-0.05a9.26,9.26,0,0,1-4.39,1.47,2.79,2.79,0,0,1-1.76.58l0,0h0a2.77,2.77,0,0,1-1.5.57,1.46,1.46,0,0,1,1.5-.57l0,0h0a2.12,2.12,0,0,1,1.75-.58,1.22,1.22,0,0,1,.31-0.3,13.71,13.71,0,0,1,4.08-1.17l0,0,0.9-.29,0.89-.3h0l0.27-.29V101Zm0-13.55a5.79,5.79,0,0,1,.43-0.53l0.37,0.38a0.68,0.68,0,0,1-.47.48,0.41,0.41,0,0,1-.32-0.07A0.28,0.28,0,0,1,269.68,87.42Zm0.08,29.08-0.08-.24a5.08,5.08,0,0,1,1.85-.72,6.7,6.7,0,0,1,2.08.87ZM274,78.56l0,0,0.09,0a0.13,0.13,0,0,1,0,.06A0.12,0.12,0,0,1,274,78.56Zm1-66.65a2.72,2.72,0,0,1-.31.08l0-.11a2.74,2.74,0,0,1,.29-0.15,0.13,0.13,0,0,1,.11.06A0.13,0.13,0,0,1,275,11.92Zm2.15-1.84,0-.08h0.06a0.12,0.12,0,0,1,0,.05A0.11,0.11,0,0,1,277.12,10.08ZM277.49,89a0.45,0.45,0,0,1-.06-0.18,0.36,0.36,0,0,1,.16-0.07,1,1,0,0,1,0,.19A0.58,0.58,0,0,1,277.49,89Zm2.75-17.7,0.05,0,0.06,0.08,0,0Zm0.08,0.67,0,0,0,0h0ZM280.64,73a0.32,0.32,0,0,1-.17-0.5C280.74,72.62,280.71,72.79,280.64,73Zm0.88-30.83a29.58,29.58,0,0,1-3.38,2.18,1,1,0,0,1-.27.06h0l-0.28.35a0.3,0.3,0,0,1,.28-0.35h0c0.3-.24.6-0.5,0.92-0.71,0.91-.61,1.82-1.19,2.73-1.78C281.68,42.06,281.58,42.14,281.52,42.18Zm0.61,45.6a1.22,1.22,0,0,1,0-.31,0.19,0.19,0,0,1,.16-0.06,0.22,0.22,0,0,1,.08.18A0.67,0.67,0,0,1,282.12,87.78Zm6.19,42.4-4.38-.35v-0.2l4.41,0.35Zm0.13-81.57a1.62,1.62,0,0,1-.57-0.13,1.79,1.79,0,0,0-.46-0.23c-0.72,0-1.43-.21-2.16-0.15a1.87,1.87,0,0,1-.51,0c-0.44-.09-0.87-0.2-1.31-0.29a1.16,1.16,0,0,0-1,.36l-0.1,1a1.24,1.24,0,0,1-.25-0.37c0-.37,0-0.74,0-1.13l0.61-.28-0.19-.65,0.52-.56c0.22,0.21.42,0.36,0.58,0.54a1.28,1.28,0,0,0,1,.47,2.78,2.78,0,0,1,1,.26,1.8,1.8,0,0,0,.87.16,2.48,2.48,0,0,1,1.38.24,1.84,1.84,0,0,0,.86.19c0.35,0,.41.08,0.45,0.52A4.59,4.59,0,0,1,288.44,48.6Zm0.86-11.54h-0.11a0.16,0.16,0,0,1,0-.06h0.11Zm0.46,11.48a0.37,0.37,0,0,1-.2-0.25,0.28,0.28,0,0,1,.16-0.2,0.43,0.43,0,0,1,.54.17A0.41,0.41,0,0,1,289.75,48.54Zm0.6,81.87,3.05,0.24C291.32,131.44,291.28,131.44,290.35,130.41Zm1.18-81.56,0.1-.18,0.19,0.11a0.32,0.32,0,0,1-.11.13A0.43,0.43,0,0,1,291.54,48.85ZM292.93,68H293s0,0.08,0,.11h-0.05S292.93,68.09,292.93,68Zm0.27,1.12,0.1,0v0.19h-0.05Zm0.26-34.6a20.43,20.43,0,0,1-2.39,1.32,2.85,2.85,0,0,1,1.18-.9,6.82,6.82,0,0,1,1.33-.78l0.11,0.12A1,1,0,0,1,293.46,34.57Zm0.54-.5a25.61,25.61,0,0,1,5-2.95,0.21,0.21,0,0,1,0,.06,0.09,0.09,0,0,1,0,.07c-0.84.5-1.65,1-2.52,1.47A21.94,21.94,0,0,1,294,34.07Zm5.74,13.18a1.7,1.7,0,0,1-1.49,1.19A1.35,1.35,0,0,1,299.75,47.25Zm0.8,84.89c-0.5-.13-1-0.34-1.64-0.6,0.68-.05,1.19-0.12,1.71-0.12a1,1,0,0,1,.38.36A1.11,1.11,0,0,1,300.55,132.14ZM301.44,46a0.19,0.19,0,0,1,0-.33,5.42,5.42,0,0,1,.58-0.28l0.08,0.15A1.44,1.44,0,0,1,301.44,46Zm1.4-16.9-0.46.27C302.46,29.12,302.46,29.12,302.84,29.12ZM302.52,44.9a1.25,1.25,0,0,1,1.09-.1A1.14,1.14,0,0,1,302.52,44.9Zm3.78-.41c-0.75.08-1.48,0.28-2.24,0.29L304,44.6a1,1,0,0,1,.4-0.26c0.65,0,1.31,0,2,0A0.44,0.44,0,0,1,306.3,44.49Zm0.89-17.56a0.24,0.24,0,0,1,0-.12,1,1,0,0,1,.18-0.07l0,0.15Zm0.27,15.85,0,0,0,0,0,0Zm0.35-16.23,0-.05,0,0.05h-0.05Zm0.34-.17c0.08-.32.22-0.37,0.48-0.24ZM311,103.43a0.87,0.87,0,0,1,0-.9v0.9Zm0.17-16a0.08,0.08,0,0,1,0,0,0.68,0.68,0,0,1,.06-0.1l0.08,0.08Zm0.11-.7a0.2,0.2,0,0,1-.07-0.07,0.4,0.4,0,0,1,0-.13,0.22,0.22,0,0,1,.07.08A0.37,0.37,0,0,1,311.31,86.77Zm0.21-2.1-0.15-1.08a0.66,0.66,0,0,1,.27.11A1.36,1.36,0,0,1,311.52,84.67ZM322.4,171a71.17,71.17,0,0,1-9.52-1.8l9.57,1.35Zm-1.65-58.75a7.69,7.69,0,0,1-.37,1.79c-0.2.4-.55,0.93-1.14,0.21a2.37,2.37,0,0,0-1.11-.33l-0.06-.33Zm-1.14-66.46,0.08-.07,0,0.05-0.08.06Zm5,76.14a0.82,0.82,0,0,0-.91-1,1.76,1.76,0,0,1-1.67-.8l0,0v0l0,0h0c-0.94.87-2.2-.12-3.19,0.51a0.58,0.58,0,0,1-.25-0.3,0.44,0.44,0,0,1,.21-0.36,3.69,3.69,0,0,1,.91,0c0.77,0.05,1.54.13,2.32,0.19l0,0,0,0.05a0.47,0.47,0,0,0,.21.14c3.57,0.34,7,1.25,10.58,1.74,1.33,0.18,2.69.79,4.1,0.3a0.53,0.53,0,0,1,.44,0c0.53,0.86,1.51.56,2.23,0.9s1.61,0.79,2.44,0a0.56,0.56,0,0,1,.53,0c0.57,1,1.74.78,2.56,1.33-1.63-.35-3.29.45-4.93-0.34a8.06,8.06,0,0,0-2.58-.48c-2.1-.22-4.19-0.41-6.29-0.59-1.94-.17-3.89-0.34-5.83-0.45C324.84,122.68,324.41,122.73,324.57,121.9Zm16.91-24.74h0.05l0,0.05ZM338,143.8a9.48,9.48,0,0,1-4.54-.21c-0.66-.14-1.55.4-2.15-0.83l6.7,0.89S338,143.76,338,143.8Zm13.46,31.76a9.29,9.29,0,0,0-1.45-.43c-1.6-.22-3.2-0.38-4.81-0.55-0.56-.06-1.13-0.14-1.69-0.16s-1,0-1.51,0a1.76,1.76,0,0,1-.68.05c-0.86-1.37-2.33-.79-3.44-0.91-1.56-.17-3-0.78-4.51-1-1.86-.2-3.7-0.54-5.55-0.82a0.66,0.66,0,0,0-.46,0c-1,1-1.1,0-1.73-.76,4.69,0.71,9,1.33,13.27,2s8.42,1.4,12.63,2.1Zm-3.61-29.93a3.78,3.78,0,0,1,3.87.53c-0.64.29-1.19,0.59-1.77,0.79a0.89,0.89,0,0,1-.63-0.21C348.85,146.41,348.4,146,347.86,145.63ZM350.65,159a3.52,3.52,0,0,1-.83-0.63l3-.76c-0.16,2.28,2.19,1.57,3.22,2.7C354.21,159.86,352.43,159.43,350.65,159Zm2-12.15c0-.12,0-0.23,0-0.35,0.94,0.42,2.14-.89,3.06.59Zm1.45,9.12c0.33-.38.64-0.78,1-1.14s0.7-.61,1.08-0.94C355.4,155.78,355.39,155.79,354.11,155.94Zm5.23-75.76,0.32,0.69A0.57,0.57,0,0,1,359.35,80.18Zm0.15,5.62v0.06l-0.06,0Zm1,75.48-0.12.35-2.92-1C358.67,160.46,358.67,160.46,360.54,161.28Zm0.32,15.5-3.08-.5,0.05-.31,3.14,0.51Zm1.47-28.55a12.63,12.63,0,0,0-2,1.33l-0.53-1.72c2.41,0,2.41,0,3.61-1.15C363.33,147.9,363.29,147.81,362.33,148.23Zm-2.44-59.39,0,0v0ZM368.3,178l-3.67-.53,0-.09,3.69,0.3Zm-3.75-50.35c1.72-.7,3,0.16,4.33,1Zm4.09,14.22a1,1,0,0,1-.67.27,0.6,0.6,0,0,1-.28-0.47,1.23,1.23,0,0,1,.54-0.59,8.22,8.22,0,0,1,1.29-.36A11.33,11.33,0,0,1,368.64,141.88Zm5.66,0c-1,.79-1.65.3-2.33,0.18l0.05-.36Zm-2.23-52,0,0v0Zm2.23,60.22a14.13,14.13,0,0,1-1.7.75,0.77,0.77,0,0,1-.59-0.38,0.62,0.62,0,0,1,.25-0.55,15.8,15.8,0,0,1,1.93-.4,1.1,1.1,0,0,1,.42.28A1.65,1.65,0,0,1,374.29,150.1Zm1.8-87.71h0v-0.3h0v0.3Zm0.49-15.71,0,0,0,0,0,0ZM377,44.6l0,0a0.15,0.15,0,0,1,0-.05l0,0Zm11.86,137a2.14,2.14,0,0,1-.92-0.58c0.94-.76,1.69-0.23,2.34-0.08A6,6,0,0,1,388.85,181.61ZM390,171.54c-0.19-.69.23-1.5-0.65-1.71a5.17,5.17,0,0,0-1.82-.37,4.68,4.68,0,0,1-3-.85A9.9,9.9,0,0,0,382,168a8.16,8.16,0,0,1-1.2-.32,0.33,0.33,0,1,1,.24-0.6c1.76,0.43,3.54.82,5.28,1.33s3.49,1.16,5.25,1.75A1.48,1.48,0,0,0,390,171.54ZM381.3,65.81a0.71,0.71,0,0,1,.18-0.28,0.6,0.6,0,0,1,.72.21C381.86,66,381.86,66,381.3,65.81Zm0.49,45.47-0.21-.36,0.07-.07a0.58,0.58,0,0,1,.17.14A0.81,0.81,0,0,1,381.79,111.28Zm1,6.36a1,1,0,0,1,.21.35c-0.1.46-.24,0.92-0.38,1.45A2.66,2.66,0,0,1,382.84,117.63Zm-0.16-55.25a0.75,0.75,0,0,1,0-.12h0.06a0.78,0.78,0,0,1,0,.12Zm8.47,58.8a0.1,0.1,0,0,1,0-.05l0.1,0.07-0.08.09A0.71,0.71,0,0,1,391.15,121.18Zm2.95,12c-0.79-.31-1.55-0.7-2.54-1.17,1.13,0.17,2,.3,2.91.45a0.59,0.59,0,0,1,.21.31A1.2,1.2,0,0,1,394.1,133.17Zm0-61.91a2.53,2.53,0,0,1,.14,1.27A1.73,1.73,0,0,1,394.11,71.26Zm0.68-5.44c0,0.26,0,.53,0,0.79a4.42,4.42,0,0,1-.13-1.62A1,1,0,0,1,394.79,65.82Zm0,4.18,0,0,0,0h0Zm0.42-16.71c0,2.3,0,4.61,0,6.91,0,1.1-.08,2.2-0.15,3.3a9,9,0,0,1-.2,1.08,0.18,0.18,0,0,1-.23-0.24c0.26-1.76.1-3.55,0.22-5.32,0.07-.92,0-1.85,0-2.77s0-1.9,0-2.85a30.66,30.66,0,0,0-.23-4c-0.19-2-.38-3.93-0.39-5.91a1.08,1.08,0,0,1,.07-0.27h0.16a1.52,1.52,0,0,1,0,.42,2.85,2.85,0,0,0,0,1c0.1,0.59.14,1.19,0.19,1.79,0.07,0.77.11,1.55,0.18,2.32,0,0.5.1,1,.18,1.49A18.58,18.58,0,0,1,395.25,53.29Zm-0.63-18c-0.6,0-1.2.09-1.79,0.09a27.08,27.08,0,0,0-3,.4l-1.56.18c-0.79.1-1.59,0.14-2.37,0.29a14.61,14.61,0,0,1-2,.21,5.17,5.17,0,0,0-1.81.42,2.84,2.84,0,0,1-1.3.26c-0.55,0-1.1.08-1.65,0.09a41.75,41.75,0,0,0-4.19.28,48.74,48.74,0,0,1-5.47.18c-0.45,0-.9.06-1.35,0.09l-0.45,0-6.9.22-3.53.14c-0.95,0-1.9.07-2.84,0.12-0.37,0-.74.11-1.11,0.14l-2.53.18c-0.42,0-.84.1-1.26,0.15l-2.23.27c-1.21.16-2.43,0.28-3.63,0.51a14.6,14.6,0,0,0-1.9.37c-0.9.29-1.84,0.44-2.75,0.67-0.53.13-1.06,0.28-1.59,0.43-1.16.32-2.35,0.43-3.53,0.64a11.93,11.93,0,0,0-3,.7,5.14,5.14,0,0,1-2.27.39c-0.92,0-1.85.08-2.77,0.06a29.24,29.24,0,0,0-4,.27,8.67,8.67,0,0,1-1.19,0c-0.6,0-1.2-.08-1.79,0a11,11,0,0,0-2.9.35,6.22,6.22,0,0,1-1.93.24,19.47,19.47,0,0,0-3.94.46,5,5,0,0,1-1.11,0,0.44,0.44,0,0,1-.11-0.15,0.84,0.84,0,0,1,.66-0.39c0.86-.15,1.72-0.32,2.58-0.44a9.93,9.93,0,0,1,1.72-.12,12.79,12.79,0,0,0,2.31-.22,8.59,8.59,0,0,1,2.06-.2,0.61,0.61,0,0,0,.29,0,1.14,1.14,0,0,1,.81,0,0.27,0.27,0,0,0,.14,0,2.85,2.85,0,0,1,1.4-.06c0.85-.05,1.69-0.16,2.53-0.23,0.15,0,.3,0,0.44,0l0.59,0a1.25,1.25,0,0,1,.51,0,7.55,7.55,0,0,0,1.55.12,0.39,0.39,0,0,0,.22,0,4.3,4.3,0,0,1,1.49-.08c0.52,0,1,0,1.57,0A2.17,2.17,0,0,0,330.3,42c0.59-.21,1.17-0.43,1.76-0.64a4.67,4.67,0,0,1,.58-0.11l0.65-.14a0.81,0.81,0,0,1,.28-0.1,7.56,7.56,0,0,0,1.91-.26,7,7,0,0,0,1.39-.3c1-.2,1.87-0.54,2.81-0.75a32.12,32.12,0,0,1,3.22-.7c1.09-.13,2.16-0.35,3.24-0.53a2.59,2.59,0,0,1,.44,0,0.8,0.8,0,0,0,.29,0,10.73,10.73,0,0,1,2.36-.32,11.16,11.16,0,0,1,1.93-.13,3.44,3.44,0,0,0,.44,0,2.62,2.62,0,0,1,1.18-.09,0.73,0.73,0,0,0,.37,0,8.51,8.51,0,0,1,2.24-.19q2.62-.1,5.24-0.17c0.95,0,1.9,0,2.85,0,0.7,0,1.4-.08,2.1-0.12,2.32-.14,4.65-0.17,7-0.17,0.77,0,1.54-.14,2.31-0.21l0.37,0c0.92-.06,1.84-0.14,2.77-0.19s1.84,0,2.76-.06a0.72,0.72,0,0,0,.28,0,7.4,7.4,0,0,1,2.66-.67c0.47,0,.94-0.16,1.41-0.22q1.38-.16,2.76-0.27c1.14-.1,2.27-0.28,3.41-0.45a22.3,22.3,0,0,1,2.24-.21c0.72,0,1.44-.09,2.16-0.17,0.91-.1,1.84-0.13,2.76-0.2,0.57,0,1.15-.06,1.72-0.16a2,2,0,0,1,1.16.2,0.56,0.56,0,0,1,.36.78h0v0c0.2,0.23.42,0.45,0.6,0.69a0.69,0.69,0,0,1,.09.68c-0.15-.26-0.3-0.53-0.44-0.8s-0.17-.38-0.25-0.57l0,0h0a1.6,1.6,0,0,0-1.34-.3,2.54,2.54,0,0,1-.45,0c-1.15,0-2.3.12-3.44,0.13C395.83,35.12,395.23,35.26,394.61,35.29Zm6.92,27a15.28,15.28,0,0,1-.21,4,1.81,1.81,0,0,0,0,1.46,0.9,0.9,0,0,1,0,.51c-0.08.69-.19,1.38-0.26,2.08A14.91,14.91,0,0,0,401,72a7.74,7.74,0,0,0,0,1.48,4.77,4.77,0,0,1-.15,1.4s0,0.1,0,.15c-0.06.32-.19,0.48-0.39,0.46a0.45,0.45,0,0,1-.34-0.52,3.15,3.15,0,0,1,.11-0.81,9.78,9.78,0,0,0,.28-2.22c0-.8.15-1.59,0.21-2.38a6.79,6.79,0,0,0,0-2.08,0.73,0.73,0,0,1,0-.37,12.21,12.21,0,0,0,.38-2.74c0.06-.66,0-1.34,0-2,0-.34,0-0.34.39-0.5h0l-0.18-.22a0.37,0.37,0,0,1,.12-0.12,1.52,1.52,0,0,1,.27,0,1.54,1.54,0,0,1-.08.25,0.32,0.32,0,0,1-.12.08h0A1.41,1.41,0,0,1,401.53,62.28Zm-3,70.89c1.72,0.9,3.87-.42,5.43,1.22a19.55,19.55,0,0,0-2.27-.17C399.93,134.28,399.93,134.31,398.53,133.17Zm3.2,49.58,7.76,1.27q0,0.1,0,.2c-0.21.07-.43,0.16-0.65,0.21a1,1,0,0,1-.45,0L401.68,183Zm3.58,5.31,7,1.26C410.3,189.57,405.94,188.86,405.31,188.06Zm17.4-1.33-7.44-1.46,0-.23c2.33,0.33,4.65.65,7,1a1.83,1.83,0,0,1,.6.38Zm7.7,1.32a1.23,1.23,0,0,1-.31,0L425,186.9a2.86,2.86,0,0,1,.71-0.12c2.06,0.21,4.13.42,6.19,0.67a5.06,5.06,0,0,1,1.13.48Z" transform="translate(0.03)"/><rect class="cls-3" x="6.98" y="8.22" width="416.69" height="113.68"/><path class="cls-4" d="M7,121.88V137.4A45.58,45.58,0,0,1,52.54,183H421.9" transform="translate(0.03)"/><polyline class="cls-4" points="54.31 182.97 423.67 182.97 423.67 121.82"/><path class="cls-1" d="M62,162.55a0.4,0.4,0,0,1-.44-0.44v-2.86a0.37,0.37,0,0,1,.44-0.44h2.17V143.69H62a0.39,0.39,0,0,1-.44-0.44v-2.87a0.39,0.39,0,0,1,.44-0.44H72.61c4.12,0,6.89,2.52,6.89,6.27A5.62,5.62,0,0,1,77,150.9,5.08,5.08,0,0,1,80.73,156c0,4.31-2.68,6.52-8,6.52H62Zm9.73-13.1c1.8,0,3.34-.91,3.34-2.8,0-2.17-1.64-3-3.56-3h-3v5.76h3.18Zm0.47,9.35c2.55,0,4.09-1.07,4.09-3.15s-1.45-3-4-3H68.54v6.14H72.2Z" transform="translate(0.03)"/><path class="cls-1" d="M98.4,162.55c-1.07,0-1.7-.72-2.27-1.89l-2.49-5.1a2.11,2.11,0,0,0-1.92-1.42H89.17v4.66h2.68a0.39,0.39,0,0,1,.44.44v2.86a0.41,0.41,0,0,1-.44.44H82.62a0.4,0.4,0,0,1-.44-0.44v-2.86a0.37,0.37,0,0,1,.44-0.44H84.8V143.69H82.62a0.39,0.39,0,0,1-.44-0.44v-2.87a0.39,0.39,0,0,1,.44-0.44H93c4.53,0,7.78,2.83,7.78,7.27a6.07,6.07,0,0,1-3.9,6,6.07,6.07,0,0,1,1.23,1.7l2.08,3.84h2a0.38,0.38,0,0,1,.44.44v2.86a0.4,0.4,0,0,1-.44.44H98.4Zm-6.45-11.9c2.83,0,4.38-.91,4.38-3.31,0-2.64-1.86-3.65-4.38-3.65H89.17v7h2.77Z" transform="translate(0.03)"/><path class="cls-1" d="M118.55,162.55a0.4,0.4,0,0,1-.44-0.44v-2.86a0.37,0.37,0,0,1,.44-0.44h2l-1.29-3.43H112l-1.29,3.43h2.08a0.39,0.39,0,0,1,.44.44v2.86a0.41,0.41,0,0,1-.44.44h-8.56a0.41,0.41,0,0,1-.44-0.44v-2.86a0.39,0.39,0,0,1,.44-0.44h2.08l5.79-15.11H110a0.4,0.4,0,0,1-.44-0.44v-2.87a0.4,0.4,0,0,1,.44-0.44h6.08c1.32,0,1.79.5,2.3,1.8L125,158.81h2.08a0.39,0.39,0,0,1,.44.44v2.86a0.41,0.41,0,0,1-.44.44h-8.57Zm-2.8-16.81h-0.16L113.27,152h4.79Z" transform="translate(0.03)"/><path class="cls-1" d="M129.55,162.55a0.5,0.5,0,0,1-.5-0.5v-2.42a3.39,3.39,0,0,1,.85-1.57l11.37-14.36H133.2v2.77a0.5,0.5,0,0,1-.5.5h-3.15a0.5,0.5,0,0,1-.5-0.5v-6a0.5,0.5,0,0,1,.5-0.5h17.19a0.5,0.5,0,0,1,.5.5v2.11a2.78,2.78,0,0,1-.82,1.83L135,158.81h8.06V156a0.5,0.5,0,0,1,.5-0.5h3.15a0.5,0.5,0,0,1,.5.5v6a0.5,0.5,0,0,1-.5.5H129.55Z" transform="translate(0.03)"/><path class="cls-1" d="M149.9,162.55a0.4,0.4,0,0,1-.44-0.44v-2.86a0.37,0.37,0,0,1,.44-0.44h2.17V143.69H149.9a0.39,0.39,0,0,1-.44-0.44v-2.87a0.39,0.39,0,0,1,.44-0.44h8.75a0.4,0.4,0,0,1,.44.44v2.87a0.4,0.4,0,0,1-.44.44h-2.2v15.11h2.2a0.39,0.39,0,0,1,.44.44v2.86a0.41,0.41,0,0,1-.44.44H149.9Z" transform="translate(0.03)"/><path class="cls-1" d="M161.64,162.55a0.4,0.4,0,0,1-.44-0.44v-2.86a0.37,0.37,0,0,1,.44-0.44h2.17V143.69h-2.17a0.39,0.39,0,0,1-.44-0.44v-2.87a0.39,0.39,0,0,1,.44-0.44h8.66a0.5,0.5,0,0,1,.5.5v2.74a0.5,0.5,0,0,1-.5.5h-2.11v15.11h7.15v-3a0.38,0.38,0,0,1,.44-0.44h3a0.39,0.39,0,0,1,.44.44V162a0.5,0.5,0,0,1-.5.5H161.64Z" transform="translate(0.03)"/><path class="cls-1" d="M181.23,162.55a0.4,0.4,0,0,1-.44-0.44v-2.86a0.37,0.37,0,0,1,.44-0.44h2.17V143.69h-2.17a0.39,0.39,0,0,1-.44-0.44v-2.87a0.39,0.39,0,0,1,.44-0.44H190a0.4,0.4,0,0,1,.44.44v2.87a0.4,0.4,0,0,1-.44.44h-2.2v15.11H190a0.39,0.39,0,0,1,.44.44v2.86a0.41,0.41,0,0,1-.44.44h-8.75Z" transform="translate(0.03)"/><path class="cls-1" d="M206.46,162.55a0.4,0.4,0,0,1-.44-0.44v-2.86a0.37,0.37,0,0,1,.44-0.44h2l-1.29-3.43h-7.31l-1.29,3.43h2.08a0.39,0.39,0,0,1,.44.44v2.86a0.41,0.41,0,0,1-.44.44h-8.56a0.41,0.41,0,0,1-.44-0.44v-2.86a0.39,0.39,0,0,1,.44-0.44h2.08L200,143.69h-2.11a0.4,0.4,0,0,1-.44-0.44v-2.87a0.4,0.4,0,0,1,.44-0.44H204c1.32,0,1.79.5,2.3,1.8l6.67,17.07H215a0.39,0.39,0,0,1,.44.44v2.86a0.41,0.41,0,0,1-.44.44h-8.57Zm-2.8-16.81H203.5L201.17,152H206Z" transform="translate(0.03)"/><path class="cls-1" d="M233.76,162.55a2.22,2.22,0,0,1-2-1.29l-6.86-10.74a22.61,22.61,0,0,1-1.26-2.27h-0.09v10.55h2.2a0.39,0.39,0,0,1,.44.44v2.86a0.41,0.41,0,0,1-.44.44H217a0.4,0.4,0,0,1-.44-0.44v-2.86a0.37,0.37,0,0,1,.44-0.44h2.17V143.69H217a0.39,0.39,0,0,1-.44-0.44v-2.87a0.39,0.39,0,0,1,.44-0.44h5.51a2.29,2.29,0,0,1,2,1.48L231,151.75c0.88,1.45,1.7,3.18,1.7,3.18h0.09V143.69h-2.17a0.38,0.38,0,0,1-.44-0.44v-2.87a0.39,0.39,0,0,1,.44-0.44h8.75a0.4,0.4,0,0,1,.44.44v2.87a0.4,0.4,0,0,1-.44.44h-2.2v18.42a0.4,0.4,0,0,1-.44.44h-3Z" transform="translate(0.03)"/><path class="cls-1" d="M250,162.55a0.4,0.4,0,0,1-.44-0.44v-2.86a0.37,0.37,0,0,1,.44-0.44h2.17V143.69H250a0.39,0.39,0,0,1-.44-0.44v-2.87a0.39,0.39,0,0,1,.44-0.44H260.6c4.12,0,6.89,2.52,6.89,6.27A5.62,5.62,0,0,1,265,150.9a5.08,5.08,0,0,1,3.71,5.13c0,4.31-2.68,6.52-8,6.52H250Zm9.73-13.1c1.8,0,3.34-.91,3.34-2.8,0-2.17-1.64-3-3.56-3h-3v5.76h3.18Zm0.47,9.35c2.55,0,4.09-1.07,4.09-3.15s-1.45-3-4-3h-3.75v6.14h3.65Z" transform="translate(0.03)"/><path class="cls-1" d="M270.62,162.55a0.4,0.4,0,0,1-.44-0.44v-2.86a0.37,0.37,0,0,1,.44-0.44h2.17V143.69h-2.17a0.39,0.39,0,0,1-.44-0.44v-2.87a0.39,0.39,0,0,1,.44-0.44h10.61c4.12,0,6.89,2.52,6.89,6.27a5.62,5.62,0,0,1-2.49,4.69,5.08,5.08,0,0,1,3.71,5.13c0,4.31-2.68,6.52-8,6.52h-10.7Zm9.73-13.1c1.8,0,3.34-.91,3.34-2.8,0-2.17-1.64-3-3.56-3h-3v5.76h3.18Zm0.47,9.35c2.55,0,4.09-1.07,4.09-3.15s-1.45-3-4-3h-3.75v6.14h3.65Z" transform="translate(0.03)"/><path class="cls-1" d="M313,165.73a0.39,0.39,0,0,1-.22.54,12.09,12.09,0,0,1-4.5.88,10.77,10.77,0,0,1-9.35-5.07c-4.44-1.39-7.56-5.48-7.56-11a11.24,11.24,0,1,1,22.48,0c0,6.67-4.19,11-9.92,11.56,0,0,1.1,1.13,4.57,1.13a7,7,0,0,0,3.15-.54,0.34,0.34,0,0,1,.54.16Zm-3.87-14.51c0-4.79-3.12-7.27-6.52-7.27s-6.52,2.49-6.52,7.27c0,4.53,3,7.24,6.52,7.24S309.16,155.75,309.16,151.22Z" transform="translate(0.03)"/><line class="cls-3" x1="335.3" y1="121.9" x2="335.3" y2="182.97"/><path class="cls-1" d="M413.27,144.55a7.63,7.63,0,0,1-1.36-1.72,23.39,23.39,0,0,0-2.51-3,1.93,1.93,0,0,0-.72-1.22,5.89,5.89,0,0,1-1.22-1.65,2.47,2.47,0,0,0,1.94-1.36,17.48,17.48,0,0,1,1.65-3.3s0.14-.36-0.72.36a9.71,9.71,0,0,0-1.65,2s-0.29.43-.5,0.29,0-.29.07-0.72l0.43-2s0.07-.57-0.43.57a4,4,0,0,1-2.51,2.59,1.47,1.47,0,0,0-1.58.57s-2.73.29-3.3,0.29a11.24,11.24,0,0,1-3.59-.5,4.52,4.52,0,0,0-.52-0.16,7.31,7.31,0,0,0-.91-0.16c-0.36,0-.73-0.06-1.09-0.07s-0.85,0-1.27,0c-0.22,0-.43,0-0.65,0h-1.13l-0.38,0-0.14,0-0.15,0-1.32.16a94.24,94.24,0,0,1-11.13,1.29c-3.73.07-5.17,0.22-8.26-.65a39.28,39.28,0,0,0-9-1.08c-2.94-.07-8.26.07-9.62,1.8a9.79,9.79,0,0,0-1.29,4.17,42,42,0,0,0-.07,7.33c0.14,2,.5,5-0.29,7.25a12.93,12.93,0,0,0-1.08,4.31,4.22,4.22,0,0,0,.14,1.36s-0.07,2.73.5,2.8c0,0,.86-0.72.86-3.45v-1.72a11.06,11.06,0,0,1,.5-3.3,14.3,14.3,0,0,0,.43-4.17s-0.29-4.09-.22-5.24a10.7,10.7,0,0,0,.86,3c0.65,1.58,2.15,5.24,1.44,6.68A9.79,9.79,0,0,1,352,158.7a3.22,3.22,0,0,0-.72,1.58,2.08,2.08,0,0,0,.22,1.22s0.14,5.75.22,6.18,0.07,1.58.65,1.58,0.36-.5.57-0.29a0.73,0.73,0,0,1,.36.72c-0.07.36-.22,1.72,0.65,1.8H354c0.93,0,3.09.36,3.73-.07a8.56,8.56,0,0,0-1.15-1.51,2.57,2.57,0,0,0-.57-1.58,6.07,6.07,0,0,1-.72-5.46,9.35,9.35,0,0,1,3.38-4.24s0.14,0.07-.07.5a2.1,2.1,0,0,0-.5,1.58,14.09,14.09,0,0,1,.86,1.51c0.22,0.5.46,1,.69,1.51a0.68,0.68,0,0,0,.07.13,0.68,0.68,0,0,1,.08.12c0.15,0.31.28,0.64,0.41,1l0.4,0.94a7.12,7.12,0,0,1,.49,1.38s0,0.09,0,.13c0.07,0.65.14,1.87,1.15,1.8,0,0,.29,0,0.29.43v0.79a1.16,1.16,0,0,0,1.08,1.22c1.08,0,3.3.5,3.52-.07s-0.86-1-1.15-1.87-0.36-1.22-.72-1.44c0,0-1.51-3.16-1.8-4.09a8.61,8.61,0,0,1,0-6.1,11.57,11.57,0,0,0,1.22-2.87s7,2.51,7.76,2.73a23.85,23.85,0,0,1,2.51.93,1,1,0,0,0,1.29-.29c0.07-.36.07-0.5,1.22-0.36a37.59,37.59,0,0,0,9.91-.22l0.07,1.51a10.16,10.16,0,0,0,.65,2.8,2.48,2.48,0,0,1,.07,1.44c-0.14,1.08-.79,4.09.22,4.81,0,0,.14.07,0,0.43a1.61,1.61,0,0,0-.22,1.08,2.53,2.53,0,0,0,.14.65,3.87,3.87,0,0,0,1.22.07,2.15,2.15,0,0,1,.86.22,5.47,5.47,0,0,0,3,.22v-0.07s0.14,0-.07-0.36l-0.79-1.22a2.42,2.42,0,0,0-.43-1.22,5.44,5.44,0,0,1-.86-2.87V164.3a5.76,5.76,0,0,1,.86-2.37,12.25,12.25,0,0,0,.93-3.59,0.81,0.81,0,0,1,.43-0.29c0.36-.07,3.73-1.29,4.38-4.24a6.08,6.08,0,0,1,1.58-1.94,16.69,16.69,0,0,0,2.51-3.16,1,1,0,0,1,.93-0.43h1.51a7,7,0,0,0,4-1,2.25,2.25,0,0,1,.65-0.07H410a0.7,0.7,0,0,1,.57.14,1.62,1.62,0,0,0,1.51-.14l1.44-1.08C413.27,146,414.13,145.34,413.27,144.55Z" transform="translate(0.03)"/><path class="cls-2" d="M360.2,136.14c-0.09-.26-0.17-0.58-0.17-0.58h0.84a3.06,3.06,0,0,0,.09.31Z" transform="translate(0.03)"/><path class="cls-2" d="M365.18,140a7.58,7.58,0,0,1-.8-0.16l0.2-.79a6.59,6.59,0,0,0,.72.14Zm-1.59-.4a6.11,6.11,0,0,1-.75-0.35l0.39-.71a5.25,5.25,0,0,0,.65.3Zm-1.45-.81a5.64,5.64,0,0,1-.63-0.55l0.58-.57a4.69,4.69,0,0,0,.54.47ZM361,137.61a6,6,0,0,1-.44-0.71l0.72-.38a5,5,0,0,0,.38.61Z" transform="translate(0.03)"/><path class="cls-2" d="M366.71,140.09H366l0-.81h0.56Z" transform="translate(0.03)"/><path class="cls-2" d="M366.07,151.72l-0.77-.27,0.25-.71,0.77,0.26Zm0.49-1.45-0.77-.25,0.22-.72,0.78,0.24ZM367,148.8l-0.78-.22c0.07-.25.13-0.49,0.2-0.73l0.79,0.21Zm0.39-1.48-0.79-.19q0.09-.37.17-0.73l0.79,0.17C367.51,146.81,367.45,147.06,367.39,147.32Zm0.32-1.5-0.8-.15c0-.25.09-0.49,0.13-0.73l0.8,0.13C367.81,145.31,367.76,145.56,367.71,145.82ZM368,144.3l-0.81-.11c0-.25.06-0.5,0.09-0.74l0.81,0.08Q368,143.91,368,144.3Zm0.16-1.54-0.81-.06q0-.38,0-0.74l0.81,0C368.15,142.24,368.13,142.5,368.12,142.76Zm-0.76-1.54q0-.39,0-0.74l0.81,0q0,0.37,0,.78h-0.81Zm-0.07-1.48c0-.26-0.06-0.5-0.09-0.73l0.8-.12c0,0.24.07,0.5,0.09,0.77Zm-0.22-1.46c-0.05-.26-0.12-0.5-0.18-0.7l0.78-.23c0.07,0.23.13,0.48,0.19,0.77Zm-0.41-1.38a3.82,3.82,0,0,0-.29-0.6l0.67-.46a4.22,4.22,0,0,1,.38.76Z" transform="translate(0.03)"/><path class="cls-2" d="M366.82,143.59l-0.54,0,0-.81,0.54,0Zm-1.29-.06-0.76,0,0-.81,0.76,0Zm-1.52-.07-0.76,0,0-.81,0.76,0Zm-1.52-.07-0.76,0,0-.81,0.76,0Zm-1.52-.07-0.76,0,0-.81,0.76,0Zm-1.52-.07-0.76,0,0-.81,0.76,0Zm-1.52-.07-0.76,0,0-.81,0.76,0Zm-1.52-.07-0.76,0,0-.81,0.76,0Zm-1.52-.07-0.76,0,0-.81,0.76,0ZM353.4,143l-0.76,0,0-.81,0.76,0Zm-1.52-.07-0.76,0,0-.81,0.76,0Z" transform="translate(0.03)"/><path class="cls-2" d="M355.19,153.1c0-.17,0-0.33-0.06-0.49l0.8-.11c0,0.17.07,0.56,0.09,0.73ZM355,151.89c0-.25-0.1-0.49-0.16-0.72l0.79-.2q0.1,0.37.17,0.76Zm-0.37-1.42q-0.12-.36-0.25-0.69l0.76-.3c0.09,0.24.18,0.48,0.26,0.74Zm-0.54-1.36q-0.16-.34-0.34-0.65l0.71-.4q0.19,0.33.36,0.7Zm-0.71-1.28q-0.21-.32-0.42-0.6l0.65-.49q0.23,0.3.45,0.64Zm-0.88-1.16c-0.17-.2-0.34-0.37-0.5-0.53l0.57-.58c0.17,0.17.36,0.36,0.54,0.57Zm-1-1a5.24,5.24,0,0,0-.56-0.41l0.41-.7a5.68,5.68,0,0,1,.67.48Z" transform="translate(0.03)"/><path class="cls-2" d="M360.09,152.57l-0.81,0,0-.76,0.81,0Zm0-1.52-0.81,0,0-.76,0.81,0Zm0-1.52-0.81,0,0-.76,0.81,0Zm0-1.52-0.81,0,0-.76,0.81,0Zm0-1.52-0.81,0,0-.76,0.81,0Zm0-1.52-0.81,0,0-.76,0.81,0Z" transform="translate(0.03)"/><path class="cls-2" d="M357.93,154.54l-0.78,0,0-.81,0.74,0v0.81Zm0.78,0,0-.81,0.74,0,0.06,0.81Zm-2.33-.09-0.77-.11,0.14-.8,0.73,0.1Zm3.87,0-0.08-.81,0.74-.09,0.11,0.81Zm1.53-.21-0.14-.8,1-.18-0.47.91Zm-6.95,0a5.22,5.22,0,0,1-.79-0.26l0.33-.74a4.84,4.84,0,0,0,.66.21Z" transform="translate(0.03)"/><path class="cls-2" d="M355.56,160.53H355.2l0.06-.81h0.31c0.12,0,.48,0,0.6,0l-0.15.76Zm-1.17-.14a6.78,6.78,0,0,1-.77-0.22l0.27-.77a6.14,6.14,0,0,0,.68.2Zm-1.52-.53a4.88,4.88,0,0,1-.76-0.42l0.54-.61-0.27.31,0.24-.33a5.31,5.31,0,0,0,.6.32Z" transform="translate(0.03)"/><path class="cls-2" d="M354.24,164.67h-0.76v-0.81h0.76v0.81Zm-1.52,0H352v-0.81h0.76v0.81Z" transform="translate(0.03)"/><path class="cls-2" d="M360.31,164.13l-0.3-.79,1-.07,0.06,0.81Zm1.51-.11-0.06-.81,0.76-.06,0.06,0.81Z" transform="translate(0.03)"/><path class="cls-2" d="M362.63,159.75H362v-0.81h0.66v0.81Zm-1.42,0h-0.76v-0.81h0.76v0.81Zm-1.52,0h-1l0.22-.81h0.74v0.81Z" transform="translate(0.03)"/><path class="cls-2" d="M359.46,158.35l-0.56-.59,0.55-.52,0.56,0.59Zm1.11-1-0.56-.59,0.55-.52,0.56,0.59Zm1.1-1-0.56-.59,0.55-.52,0.56,0.59Zm1.11-1-0.56-.59,0.55-.52,0.56,0.59Zm1.09-1.07-0.57-.58a4.21,4.21,0,0,1,.66-0.51l0.44,0.68A3.52,3.52,0,0,0,363.87,154.16Zm1.15-.75-0.34-.74c0.22-.1.47-0.2,0.74-0.3l0.27,0.77A7,7,0,0,0,365,153.41Zm18.63-.08-0.76-.07,0.07-.81,0.76,0.07Zm-1.51-.14-0.76-.07,0.07-.81,0.76,0.07Zm-1.51-.13-0.76-.06,0.06-.81,0.76,0.06Zm-1.51-.12-0.76-.06,0.06-.81,0.76,0.06Zm-12.73,0-0.2-.79,0.77-.17,0.15,0.8Zm11.22-.11-0.76-.05,0.06-.81,0.76,0.05Zm-1.51-.1-0.76,0,0-.81,0.76,0Zm-8.26-.07-0.11-.81,0.77-.08,0.07,0.81Zm6.75,0-0.76,0,0-.81,0.76,0Zm-1.51-.07-0.76,0,0-.81,0.76,0Zm-3.77,0,0-.81,0.77,0v0.81Zm2.25,0h-0.75v-0.81h0.77v0.81Z" transform="translate(0.03)"/><path class="cls-2" d="M373.13,147.13h-0.81v-0.76h0.81v0.76Zm0-1.52h-0.81v-0.76h0.81v0.76Zm0-1.52h-0.81v-0.76h0.81v0.76Zm0-1.52h-0.81v-0.76h0.81v0.76Zm0-1.52h-0.81v-0.76h0.81v0.76Zm0-1.52h-0.81v-0.76h0.81v0.76Zm0-1.52h-0.81v-0.66h0.81V138Z" transform="translate(0.03)"/><path class="cls-2" d="M379.67,147.13h-0.81v-0.76h0.81v0.76Zm0-1.52h-0.81v-0.76h0.81v0.76Zm0-1.52h-0.81v-0.76h0.81v0.76Zm0-1.52h-0.81v-0.76h0.81v0.76Zm0-1.52h-0.81v-0.76h0.81v0.76Zm0-1.52h-0.81v-0.76h0.81v0.76Zm0-1.52h-0.81v-0.66h0.81V138Z" transform="translate(0.03)"/><path class="cls-2" d="M371.11,142.44h-0.76v-0.81h0.76v0.81Zm-1.52,0h-0.76v-0.81h0.76v0.81Z" transform="translate(0.03)"/><path class="cls-2" d="M383.72,148.37H383v-0.81h0.45Zm-1.47,0H381.5v-0.81h0.76v0.81Zm-1.52,0H380v-0.81h0.76v0.81Zm-1.52,0h-0.76v-0.81h0.76v0.81Zm-1.52,0h-0.76v-0.81h0.76v0.81Zm-1.52,0h-0.76v-0.81h0.76v0.81Zm-1.52,0h-0.76v-0.81h0.76v0.81Zm-1.52,0h-0.76v-0.81h0.76v0.81Zm-1.52,0h-0.76v-0.81h0.76v0.81Zm-1.52,0h-0.76v-0.81h0.76v0.81Zm-1.52,0h-0.76v-0.81h0.76v0.81Z" transform="translate(0.03)"/><path class="cls-2" d="M386.39,157.07l-0.19-.74,0.79-.2,0.19,0.74ZM386,155.6l-0.19-.73,0.79-.2,0.19,0.74Zm-0.38-1.47-0.19-.73,0.79-.21,0.19,0.73Zm-0.38-1.47-0.19-.73,0.79-.21,0.19,0.74Zm-0.39-1.47-0.19-.73,0.79-.21,0.19,0.74Zm-0.39-1.47-0.19-.73,0.79-.21,0.19,0.73Zm-0.39-1.46-0.2-.74,0.79-.2,0.19,0.73Zm-0.37-1.5q-0.08-.39-0.14-0.76l0.8-.13q0.06,0.36.13,0.73Zm-0.24-1.53q0-.39-0.07-0.77l0.81-.06c0,0.24,0,.49.07,0.74Zm-0.1-1.55v-0.78l0.81,0v0.74Zm0.84-1.5-0.81-.06c0-.27,0-0.52.07-0.77l0.81,0.09C384.26,141.69,384.24,141.93,384.22,142.19Zm0.16-1.47-0.8-.13q0.06-.4.14-0.76l0.8,0.16C384.47,140.22,384.42,140.46,384.38,140.71Zm0.29-1.45-0.79-.2c0.07-.27.14-0.52,0.21-0.75l0.78,0.23Q384.77,138.87,384.67,139.26Zm0.43-1.41-0.76-.28c0.17-.48.3-0.74,0.3-0.74l0.81,0.17S385.25,137.43,385.1,137.85Z" transform="translate(0.03)"/><path class="cls-2" d="M394.15,149.34h-0.76v-0.81h0.76v0.81Zm-1.52,0h-0.76v-0.81h0.76v0.81Zm-1.52,0h-0.76v-0.81h0.76v0.81Zm-1.52,0h-0.76v-0.81h0.76v0.81Zm-1.52,0h-0.76v-0.81h0.76v0.81Zm-1.52,0H385.8v-0.81h0.76v0.81Z" transform="translate(0.03)"/><path class="cls-2" d="M386.87,153.5l-0.06-.81,0.76-.06,0.06,0.81Zm1.51-.11-0.06-.81,0.76-.06,0.06,0.81Zm1.51-.11-0.06-.81,0.76-.06,0.06,0.81Zm1.51-.11-0.06-.81,0.76-.06,0.06,0.81Zm1.51-.11-0.06-.81,0.76-.06-0.1.8Z" transform="translate(0.03)"/><path class="cls-2" d="M376.11,157.1H375.3v-0.76h0.81v0.76Zm0-1.52H375.3v-0.76h0.81v0.76Zm0-1.52H375.3v-0.76h0.81v0.76Z" transform="translate(0.03)"/><path class="cls-2" d="M375.14,151.06h-0.81V150.3h0.81v0.76Zm0-1.52h-0.81v-0.76h0.81v0.76Z" transform="translate(0.03)"/><path class="cls-2" d="M391.86,158.17H391.1v-0.81h0.76v0.81Zm-1.52,0h-0.76v-0.81h0.76v0.81Zm-1.52,0h-0.76v-0.81h0.76v0.81Z" transform="translate(0.03)"/><path class="cls-2" d="M390.93,163.38h-0.76v-0.81h1.18Zm-1.52,0h-0.76v-0.81h0.76v0.81Z" transform="translate(0.03)"/><path class="cls-2" d="M393.48,157.38l-0.78-.23,0.21-.73,0.78,0.23Zm0.43-1.46-0.78-.23,0.21-.73,0.78,0.23Zm0.43-1.46-0.78-.23,0.21-.73,0.78,0.23Zm0.43-1.46-0.78-.23,0.21-.73,0.78,0.23Zm0.43-1.46-0.78-.23,0.21-.73,0.78,0.23Zm0.43-1.46-0.78-.23,0.21-.73,0.78,0.23Zm0.43-1.46-0.78-.23,0.21-.73,0.78,0.23Zm0.42-1.49-0.79-.17c0-.14.08-0.4,0.15-0.73l0.8,0.15C396.55,146.74,396.49,147,396.46,147.15Zm0.29-1.51-0.8-.14c0-.23.08-0.48,0.12-0.74l0.8,0.12C396.83,145.15,396.79,145.41,396.75,145.64Zm0.22-1.52-0.81-.1q0-.36.09-0.75l0.81,0.08C397,143.62,397,143.87,397,144.12Zm0.16-1.53-0.81-.06c0-.25,0-0.49,0-0.74l0.81,0C397.16,142.08,397.15,142.34,397.13,142.59Zm0.08-1.54h-0.81v-0.74l0.81,0v0.78Zm-0.85-1.5c0-.25,0-0.49-0.07-0.73l0.81-.1c0,0.25.06,0.51,0.08,0.78Zm-0.19-1.45a7,7,0,0,0-.18-0.69l0.78-.24a7.89,7.89,0,0,1,.2.77Zm-0.43-1.35a8.21,8.21,0,0,0-.55-0.91l0.84-.17a4.1,4.1,0,0,1,.43.72Z" transform="translate(0.03)"/><path class="cls-2" d="M394.84,144.12s-0.12-.56-0.23-1l0.79-.2c0.12,0.48.18,0.77,0.18,0.77Zm-0.43-1.72c-0.06-.22-0.14-0.46-0.22-0.71l0.77-.25c0.09,0.26.16,0.51,0.23,0.74ZM393.95,141c-0.08-.23-0.17-0.46-0.26-0.7l0.76-.3c0.1,0.25.19,0.49,0.27,0.72Zm-0.55-1.38-0.31-.68,0.73-.35c0.11,0.24.22,0.47,0.32,0.7Zm-0.65-1.33q-0.17-.32-0.37-0.64l0.7-.42q0.2,0.33.39,0.67ZM392,137c-0.14-.2-0.53-0.75-0.68-0.94l0.89-.15q0.24,0.31.46,0.64Z" transform="translate(0.03)"/><path class="cls-2" d="M399,151.22l-0.79-.21c0.06-.25.12-0.49,0.18-0.73l0.79,0.19C399.16,150.72,399.1,151,399,151.22Zm0.35-1.5-0.8-.17c0.05-.25.1-0.49,0.14-0.73l0.8,0.14C399.49,149.22,399.44,149.47,399.39,149.73Zm0.28-1.51-0.8-.12c0-.25.08-0.5,0.11-0.74l0.81,0.1Q399.73,147.82,399.67,148.21Zm0.2-1.53-0.81-.08c0-.25,0-0.5.06-0.75l0.81,0.06Q399.9,146.29,399.86,146.68Zm0.11-1.54-0.81,0q0-.38,0-0.75H400Q400,144.75,400,145.15Zm-0.8-1.53c0-.26,0-0.5,0-0.74l0.81,0q0,0.38,0,.77Zm-0.08-1.48q0-.38-0.08-0.74l0.81-.11c0,0.25.06,0.5,0.09,0.77Zm-0.19-1.47q-0.07-.38-0.14-0.73l0.79-.17q0.08,0.36.15,0.76Zm-0.32-1.45c-0.07-.26-0.14-0.5-0.21-0.71l0.77-.25c0.07,0.22.14,0.47,0.22,0.75Zm-0.45-1.4c-0.16-.41-0.44-1-0.45-1l0.87,0a6.85,6.85,0,0,1,.33.74Z" transform="translate(0.03)"/><path class="cls-2" d="M395.15,154.55l-0.42-.7,0.65-.39,0.42,0.7Zm1.3-.78-0.42-.7,0.65-.39,0.42,0.7Zm1.3-.78-0.42-.7,0.85-.42v0.85Z" transform="translate(0.03)"/><path class="cls-2" d="M404.87,147.77a6.88,6.88,0,0,1-.36-0.73l0.75-.33c0.18,0.41.4,0.82,0.41,0.83Zm-0.65-1.46c-0.08-.22-0.16-0.47-0.25-0.74l0.78-.24c0.08,0.26.16,0.49,0.23,0.7Zm-0.46-1.49c-0.06-.24-0.12-0.49-0.18-0.76l0.8-.17q0.08,0.38.17,0.72Zm-0.32-1.52q-0.06-.37-0.11-0.77l0.81-.1q0,0.38.11,0.74Zm-0.2-1.54q0-.37-0.06-0.77l0.81,0c0,0.25,0,.5.06,0.74Zm-0.09-1.54c0-.17,0-0.35,0-0.53v-0.24H404v0.24c0,0.17,0,.34,0,0.51Zm0.83-1.51-0.81,0c0-.25,0-0.51,0-0.77L404,138C404,138.23,404,138.48,404,138.73Zm0.11-1.49-0.81-.08c0-.25.06-0.51,0.09-0.76l0.81,0.1C404.14,136.75,404.11,137,404.09,137.24Z" transform="translate(0.03)"/><path class="cls-5" d="M392.2,76.16c-9.52.1-19,0-28.56,0-0.8,5.78-1.67,12.49-2.47,18.26l-1,0c2.46-19.21,5.16-38,7.75-57.19,6.68,0,13.36.08,20,0,2.48,19.13,5.2,38.23,7.76,57.36l-1.09,0C393.82,88.47,392.92,82.33,392.2,76.16ZM392,75.09c-1.62-12.25-3.43-24.46-5.06-36.72-6,.08-12,0-18,0-1.82,12.22-3.39,24.49-5.2,36.71C373.15,75.06,382.58,75.13,392,75.09Z" transform="translate(0.03)"/><path class="cls-5" d="M336,37.29q0,28.67,0,57.33l-1.23,0c0-19.11,0-38.22,0-57.33Z" transform="translate(0.03)"/><path class="cls-5" d="M286.84,93.51h23.56c0,0.28,0,.83,0,1.1H285.75c0-19.1,0-38.2,0-57.29l1.16-.16C286.81,55.95,286.87,74.74,286.84,93.51Z" transform="translate(0.03)"/><path class="cls-5" d="M255.39,94.61c0-19.11.06-38.22,0-57.33h1.23c0,19.11,0,38.22,0,57.35Z" transform="translate(0.03)"/><path class="cls-5" d="M201.2,93.51c5.33,0,10.67.06,16,0,3.16-.14,6.77-0.84,8.69-3.61s1.76-6.4,1.52-9.63a8.89,8.89,0,0,0-2.94-5.63c-5.92-5.82-11.88-11.6-17.77-17.43a9.21,9.21,0,0,1-3.5-6.32c-0.35-3.8-.33-8.41,2.81-11.12,2.5-2.14,6-2.35,9.09-2.52,4.43-.07,8.86,0,13.31,0v1.1c-4.91,0-9.82-.09-14.72.09-3,.23-6.31,1-8.06,3.6s-1.63,6.28-1.33,9.43c0.14,2.1,1.72,3.65,3.12,5q9.42,9.23,18.77,18.55c2.12,2,2.44,5.1,2.45,7.86,0,3-.3,6.24-2.43,8.51-2.26,2.46-5.81,3-9,3.21-5.33.1-10.66,0-16,0v-1.1Z" transform="translate(0.03)"/><path class="cls-5" d="M177.07,76.16c-9.52.1-19,0-28.57,0-0.88,6-1.55,12.26-2.53,18.27H145c2.45-19.21,5.14-38,7.72-57.19,6.69,0,13.37.08,20.06,0,2.46,19.13,5.18,38.23,7.74,57.36l-1.08,0C178.69,88.47,177.78,82.33,177.07,76.16Zm-28.49-1c9.43-.07,18.87,0,28.29,0-1.61-12.25-3.43-24.46-5.06-36.72-6,.08-12,0-18.05.06C152,50.65,150.39,62.9,148.58,75.13Z" transform="translate(0.03)"/><path class="cls-5" d="M119.69,94.75c-2.5-6.63-5.59-14.57-8.08-21.22-6,.49-12,0.13-18.06.25V94.62H92.32c0-19.12.09-38.26,0-57.38,5.08,0.13,10.18,0,15.26.06,3.84,0,8.28.67,10.69,4,2.85,4,2.15,9.2,2.26,13.84-0.14,4.5.57,9.34-1.58,13.51a9.56,9.56,0,0,1-6.2,4.64c2.7,7.16,5.5,14.27,8.17,21.44h-1.2Zm-3.16-53.41c-2.21-2.23-5.52-2.74-8.52-2.79-4.82,0-9.63,0-14.46,0,0,11.34,0,22.68,0,34,4.68,0,9.36,0,14,0,3,0,6.17-.4,8.53-2.39s3-5.14,3.14-8.06c0.11-4.08,0-8.17,0-12.25C119.19,46.86,118.72,43.56,116.52,41.34Z" transform="translate(0.03)"/><path class="cls-5" d="M59.65,48.24c-0.21-2.75-1-5.71-3.26-7.5s-5.18-2.25-8-2.31c-3.95,0-7.88,0-11.83,0-0.07,7.64,0,15.28,0,22.91,5.17,0,10.37-.12,15.54.09,1.17,0,2.45.59,3.55,0.08A17.93,17.93,0,0,0,59.65,48.24Zm0.67,41.23c2.21-3.37,1.82-7.56,1.86-11.4s0.38-8.06-1.73-11.5c-1.85-3-5.54-4-8.86-4.1-5-.11-10,0-15,0,0,10.33,0,20.65,0,31,5,0,10,0,15-.06C54.81,93.26,58.45,92.34,60.31,89.48Zm3.08-10.88c0,4.09.25,8.66-2.34,12.12-2.17,2.93-6,3.74-9.47,3.86-5.36.09-10.74,0-16.11,0,0-19.11,0-38.22,0-57.33,4.38,0.06,8.76,0,13.15,0,3.39,0.09,7.15.72,9.57,3.35s2.9,6.67,2.75,10.2A18.79,18.79,0,0,1,56.61,62.2a9.08,9.08,0,0,1,5.14,4.11C63.83,70.05,63.31,74.49,63.39,78.59Z" transform="translate(0.03)"/><path class="cls-6" d="M48.14,38.64H36.74V61.19H50.58a28.26,28.26,0,0,1,4.69.47,17.26,17.26,0,0,0,4.27-11.51C59.54,42.08,56.13,38.64,48.14,38.64Zm3.53,13.53c0,1.34-.12,1.83-0.85,2.44H45.46V46.2h3.78a2.44,2.44,0,0,1,2.43,2.44v3.53Z" transform="translate(0.03)"/><path class="cls-6" d="M65.81,59.24v-1c1.83-2.44,4.15-6,4.15-12.92,0-8.65-6-15.85-21.34-15.85H29c-1.71,0-2.44.73-2.44,2.44V100.2c0,1.71.73,2.44,2.44,2.44H50.33c15.36,0,21.94-6.58,21.94-21.94V76.55C72.28,68.26,70.2,62.66,65.81,59.24ZM63.55,81.85c0,9.1-3.88,13-13,13H35.28V37.18H48.14c8.86,0,13,4,13,12.49a18.6,18.6,0,0,1-4.26,12.47c4.62,1.64,6.69,5.37,6.69,12v7.68Z" transform="translate(0.03)"/><path class="cls-6" d="M62,81.85V74.17c0-8.08-3.41-11.52-11.4-11.52H36.74v30.6H50.58C58.57,93.25,62,89.84,62,81.85ZM45.46,69.36h5.49a2.52,2.52,0,0,1,2.43,2.44V83.5a2.37,2.37,0,0,1-2.43,2.44H45.46V69.36Z" transform="translate(0.03)"/><path class="cls-6" d="M118.93,61V50.16c0-8-3.41-11.4-11.4-11.4h-14V72.41h14C115.52,72.41,118.93,69,118.93,61ZM102.29,46.2h5.61a2.45,2.45,0,0,1,2.44,2.44v13.9A2.45,2.45,0,0,1,107.9,65h-5.61V46.2Z" transform="translate(0.03)"/><path class="cls-6" d="M131.79,100.2L123,78.62V77.4c4.27-3.54,6.21-9.27,6.21-17.68V51.44c0-15.36-6.58-21.94-21.93-21.94H85.83c-1.71,0-2.44.73-2.44,2.44V100.2c0,1.71.73,2.44,2.44,2.44h14c1.71,0,2.44-.73,2.44-2.44V81.67h3.3l7.19,18.53a3.41,3.41,0,0,0,3.41,2.44h14c1.22,0,1.84-.49,1.84-1.34A2.19,2.19,0,0,0,131.79,100.2Zm-12.43-5.37,0-.12-8-21a34.4,34.4,0,0,1-3.78.23h-14V94.83H92V37.18h15.53c9.1,0,13,3.88,13,13V61c0,7.08-2.46,11-7.74,12.43L121,94.83h-1.6Z" transform="translate(0.03)"/><path class="cls-6" d="M153.55,38.64L148.48,75h27.86l-5.07-36.33H153.55Zm4.23,28.77,2.43-21.2h4.88l2.31,21.2h-9.63Z" transform="translate(0.03)"/><path class="cls-6" d="M180.45,31.94a2.46,2.46,0,0,0-2.8-2.44H147.9a2.46,2.46,0,0,0-2.8,2.44L135.6,100.2c0,1.71.37,2.44,2.06,2.44H151.2c1.71,0,2.56-.73,2.68-2.44L155.7,84.1h13.53l1.84,16.09c0.12,1.71,1,2.44,2.68,2.44h13.53c1.71,0,2.07-.73,2.07-2.44ZM179,94.83l0-.16-2.42-18.25h-28.2l-2.44,18.41H144.4l0-.2,7.82-57.44h20.31l0,0.15,7.83,57.49H179Z" transform="translate(0.03)"/><path class="cls-6" d="M230.94,68.26L214,53a5.16,5.16,0,0,1-1.71-4.39,2.37,2.37,0,0,1,2.44-2.44h18.65c1.71,0,2.43-.73,2.43-2.44V31.94c0-1.71-.72-2.44-2.43-2.44H215.95C200.59,29.5,194,35.84,194,48.27c0,7.07,1.22,10.24,5.61,14.26l18,16.82a5.37,5.37,0,0,1,1.71,4.14,2.45,2.45,0,0,1-2.44,2.44h-21.7c-1.71,0-2.44.73-2.44,2.44V100.2c0,1.71.73,2.44,2.44,2.44H215.7c15.35,0,21.94-6.58,21.94-19.5C237.65,76.43,236.43,73.14,230.94,68.26Zm-2.62,15.3c0,7.9-3.88,11.27-13,11.27H200.53V93.37h14.81c8.08,0,11.52-2.94,11.52-9.82,0-4.61-.37-6.14-3.11-8.89L205,56.26c-2-1.83-2.62-3.93-2.62-8.3,0-7.75,3.76-10.91,13-10.91h12.74v1.46H215.33c-8.18,0-11.52,2.74-11.52,9.45,0,4.36.11,5.38,3.12,8.28l18.65,18.41c1.5,1.5,2.73,3.17,2.73,8.41v0.49Z" transform="translate(0.03)"/><path class="cls-6" d="M262.65,29.5h-14c-1.71,0-2.43.73-2.43,2.44V100.2c0,1.71.72,2.44,2.43,2.44h14c1.71,0,2.44-.73,2.44-2.44V31.94C265.09,30.23,264.35,29.5,262.65,29.5Zm-6.15,65.33h-1.58V37.18h1.58V94.83Z" transform="translate(0.03)"/><path class="cls-6" d="M315.82,85.94H295.7v-54c0-1.71-.73-2.44-2.44-2.44h-14c-1.71,0-2.43.73-2.43,2.44V100.2c0,1.71.72,2.44,2.43,2.44h36.57c1.7,0,2.43-.73,2.43-2.44V88.37C318.25,86.66,317.51,85.94,315.82,85.94Zm-5.31,8.89h-25V37.18H287V93.37h23.52v1.46Z" transform="translate(0.03)"/><path class="cls-6" d="M342,29.5H328c-1.71,0-2.44.73-2.44,2.44V100.2c0,1.71.73,2.44,2.44,2.44h14c1.71,0,2.44-.73,2.44-2.44V31.94C344.48,30.23,343.74,29.5,342,29.5Zm-6.15,65.33H334.3V37.18h1.58V94.83Z" transform="translate(0.03)"/><path class="cls-6" d="M369,38.64L364,75h27.86l-5.07-36.33H369Zm4.23,28.77,2.44-21.2h4.87l2.31,21.2h-9.63Z" transform="translate(0.03)"/><path class="cls-6" d="M395.93,31.94a2.46,2.46,0,0,0-2.8-2.44H363.39a2.46,2.46,0,0,0-2.8,2.44l-9.51,68.26c0,1.71.37,2.44,2.06,2.44h13.54c1.71,0,2.56-.73,2.68-2.44l1.83-16.09h13.53l1.84,16.09c0.12,1.71,1,2.44,2.68,2.44h13.53c1.71,0,2.07-.73,2.07-2.44Zm-1.5,62.89,0-.16L392,76.42h-28.2l-2.44,18.41h-1.45l0-.2,7.82-57.44H388l0,0.15,7.83,57.49h-1.46Z" transform="translate(0.03)"/></svg>